<?xml version="1.0" encoding="UTF-8" standalone="no"?>
<svg
   xmlns:dc="http://purl.org/dc/elements/1.1/"
   xmlns:cc="http://creativecommons.org/ns#"
   xmlns:rdf="http://www.w3.org/1999/02/22-rdf-syntax-ns#"
   xmlns:svg="http://www.w3.org/2000/svg"
   xmlns="http://www.w3.org/2000/svg"
   xmlns:sodipodi="http://sodipodi.sourceforge.net/DTD/sodipodi-0.dtd"
   xmlns:inkscape="http://www.inkscape.org/namespaces/inkscape"
   height="364.83963"
   width="597.40002"
   id="fe21feea-ef93-4569-b3ee-3bb4b224f687"
   data-name="Layer 1"
   viewBox="0 0 597.40005 364.83962"
   version="1.1"
   sodipodi:docname="van2.svg"
   inkscape:version="1.0 (4035a4fb49, 2020-05-01)">
  <metadata
     id="metadata719">
    <rdf:RDF>
      <cc:Work
         rdf:about="">
        <dc:format>image/svg+xml</dc:format>
        <dc:type
           rdf:resource="http://purl.org/dc/dcmitype/StillImage" />
        <dc:title />
      </cc:Work>
    </rdf:RDF>
  </metadata>
  <defs
     id="defs717" />
  <sodipodi:namedview
     inkscape:document-rotation="0"
     pagecolor="#ffffff"
     bordercolor="#666666"
     borderopacity="1"
     objecttolerance="10"
     gridtolerance="10"
     guidetolerance="10"
     inkscape:pageopacity="0"
     inkscape:pageshadow="2"
     inkscape:window-width="3840"
     inkscape:window-height="2054"
     id="namedview715"
     showgrid="false"
     inkscape:zoom="3.005042"
     inkscape:cx="275.83345"
     inkscape:cy="231.56005"
     inkscape:window-x="2293"
     inkscape:window-y="-11"
     inkscape:window-maximized="1"
     inkscape:current-layer="fe21feea-ef93-4569-b3ee-3bb4b224f687"
     showguides="false" />
  <path
     d="m 144.38,102.66 c 0,0.15 -9.46,0.28 -21.13,0.28 -11.67,0 -21.13,-0.13 -21.13,-0.28 0,-0.15 9.46,-0.29 21.13,-0.29 11.67,0 21.13,0.13 21.13,0.29 z"
     fill="#e0e0e0"
     id="path24" />
  <rect
     x="118.84"
     y="112.5"
     width="7.1500001"
     height="15.08"
     fill="#e0e0e0"
     id="rect26" />
  <path
     d="m 144.38,133.51 c 0,0.16 -9.46,0.29 -21.13,0.29 -11.67,0 -21.13,-0.13 -21.13,-0.29 0,-0.16 9.46,-0.29 21.13,-0.29 11.67,0 21.13,0.13 21.13,0.29 z"
     fill="#e0e0e0"
     id="path28" />
  <rect
     x="118.84"
     y="143.36"
     width="7.1500001"
     height="15.08"
     fill="#e0e0e0"
     id="rect30" />
  <path
     d="m 144.38,164.36 c 0,0.16 -9.46,0.29 -21.13,0.29 -11.67,0 -21.13,-0.13 -21.13,-0.29 0,-0.16 9.46,-0.29 21.13,-0.29 11.67,0 21.13,0.17 21.13,0.29 z"
     fill="#e0e0e0"
     id="path32" />
  <rect
     x="118.84"
     y="173.33"
     width="7.1500001"
     height="15.08"
     fill="#e0e0e0"
     id="rect34" />
  <path
     d="m 144.38,194.33 c 0,0.16 -9.46,0.29 -21.13,0.29 -11.67,0 -21.13,-0.13 -21.13,-0.29 0,-0.16 9.46,-0.29 21.13,-0.29 11.67,0 21.13,0.13 21.13,0.29 z"
     fill="#e0e0e0"
     id="path36" />
  <rect
     x="118.84"
     y="203.42"
     width="7.1500001"
     height="15.08"
     fill="#e0e0e0"
     id="rect38" />
  <rect
     x="118.84"
     y="233.91002"
     width="7.1500001"
     height="15.08"
     fill="#e0e0e0"
     id="rect40" />
  <path
     d="m 144.38,224.42 c 0,0.16 -9.46,0.29 -21.13,0.29 -11.67,0 -21.13,-0.13 -21.13,-0.29 0,-0.16 9.46,-0.28 21.13,-0.28 11.67,0 21.13,0.1 21.13,0.28 z"
     fill="#e0e0e0"
     id="path42" />
  <rect
     x="76.219994"
     y="112.51001"
     width="7.1500001"
     height="15.08"
     fill="#fafafa"
     id="rect48" />
  <path
     d="m 101.79,133.52 c 0,0.16 -9.46,0.29 -21.12,0.29 -11.66,0 -21.13,-0.13 -21.13,-0.29 0,-0.16 9.45,-0.29 21.13,-0.29 11.68,0 21.12,0.13 21.12,0.29 z"
     fill="#e0e0e0"
     id="path50" />
  <rect
     x="76.219994"
     y="142.92"
     width="7.1500001"
     height="15.08"
     fill="#fafafa"
     id="rect52" />
  <path
     d="m 101.79,163.93 c 0,0.16 -9.46,0.28 -21.12,0.28 -11.66,0 -21.13,-0.12 -21.13,-0.28 0,-0.16 9.45,-0.29 21.13,-0.29 11.68,0 21.12,0.13 21.12,0.29 z"
     fill="#e0e0e0"
     id="path54" />
  <rect
     x="76.219994"
     y="173.33"
     width="7.1500001"
     height="15.08"
     fill="#fafafa"
     id="rect56" />
  <path
     d="m 101.79,194.33 c 0,0.16 -9.46,0.29 -21.12,0.29 -11.66,0 -21.13,-0.13 -21.13,-0.29 0,-0.16 9.45,-0.29 21.13,-0.29 11.68,0 21.12,0.13 21.12,0.29 z"
     fill="#e0e0e0"
     id="path58" />
  <rect
     x="76.219994"
     y="203.73"
     width="7.1500001"
     height="15.08"
     fill="#fafafa"
     id="rect60" />
  <path
     d="m 101.79,224.74 c 0,0.16 -9.46,0.29 -21.12,0.29 -11.66,0 -21.13,-0.13 -21.13,-0.29 0,-0.16 9.45,-0.29 21.13,-0.29 11.68,0 21.12,0.13 21.12,0.29 z"
     fill="#e0e0e0"
     id="path62" />
  <rect
     x="76.219994"
     y="234.14"
     width="7.1500001"
     height="15.08"
     fill="#fafafa"
     id="rect64" />
  <path
     d="m 520.83,252.05 c 0,0.12 -7.45,0.22 -16.64,0.22 -9.19,0 -16.64,-0.1 -16.64,-0.22 0,-0.12 7.45,-0.23 16.64,-0.23 9.19,0 16.64,0.1 16.64,0.23 z"
     fill="#e0e0e0"
     id="path156" />
  <rect
     x="500.69"
     y="259.10999"
     width="5.6300001"
     height="11.88"
     fill="#e0e0e0"
     id="rect158" />
  <path
     d="m 520.83,275.65 c 0,0.13 -7.45,0.23 -16.64,0.23 -9.19,0 -16.64,-0.1 -16.64,-0.23 0,-0.13 7.45,-0.23 16.64,-0.23 9.19,0 16.64,0.11 16.64,0.23 z"
     fill="#e0e0e0"
     id="path160" />
  <rect
     x="500.69"
     y="282.81"
     width="5.6300001"
     height="11.88"
     fill="#e0e0e0"
     id="rect162" />
  <rect
     x="500.69"
     y="306.81"
     width="5.6300001"
     height="11.88"
     fill="#e0e0e0"
     id="rect164" />
  <path
     d="m 520.83,299.35 c 0,0.12 -7.45,0.23 -16.64,0.23 -9.19,0 -16.64,-0.11 -16.64,-0.23 0,-0.12 7.45,-0.23 16.64,-0.23 9.19,0 16.64,0.12 16.64,0.23 z"
     fill="#e0e0e0"
     id="path166" />
  <path
     d="m 487.26,251.7 c 0,0.13 -7.45,0.23 -16.63,0.23 -9.18,0 -16.65,-0.1 -16.65,-0.23 0,-0.13 7.45,-0.22 16.65,-0.22 9.2,0 16.63,0.1 16.63,0.22 z"
     fill="#e0e0e0"
     id="path178" />
  <path
     d="m 487.26,275.65 c 0,0.13 -7.45,0.23 -16.63,0.23 -9.18,0 -16.65,-0.1 -16.65,-0.23 0,-0.13 7.45,-0.23 16.65,-0.23 9.2,0 16.63,0.11 16.63,0.23 z"
     fill="#e0e0e0"
     id="path182" />
  <rect
     x="467.12"
     y="283.04999"
     width="5.6300001"
     height="11.88"
     fill="#fafafa"
     id="rect184" />
  <path
     d="m 487.26,299.6 c 0,0.12 -7.45,0.22 -16.63,0.22 -9.18,0 -16.65,-0.1 -16.65,-0.22 0,-0.12 7.45,-0.23 16.65,-0.23 9.2,0 16.63,0.1 16.63,0.23 z"
     fill="#e0e0e0"
     id="path186" />
  <rect
     x="467.12"
     y="307"
     width="5.6300001"
     height="11.88"
     fill="#fafafa"
     id="rect188" />
  <rect
     x="130.11"
     y="242.03001"
     width="6.4400001"
     height="15.65"
     fill="#f5f5f5"
     id="rect194" />
  <rect
     x="130.11"
     y="303.29999"
     width="6.4400001"
     height="15.65"
     fill="#f5f5f5"
     id="rect196" />
  <path
     d="m 153.15,263.83 c 0,0.14 -8.52,0.25 -19,0.25 -10.48,0 -19,-0.11 -19,-0.25 0,-0.14 8.52,-0.24 19,-0.24 10.48,0 19,0.11 19,0.24 z"
     fill="#f5f5f5"
     id="path198" />
  <rect
     x="130.11"
     y="272.89999"
     width="6.4400001"
     height="15.65"
     fill="#f5f5f5"
     id="rect200" />
  <path
     d="m 153.15,294.7 c 0,0.13 -8.52,0.24 -19,0.24 -10.48,0 -19,-0.11 -19,-0.24 0,-0.13 8.52,-0.25 19,-0.25 10.48,0 19,0.11 19,0.25 z"
     fill="#f5f5f5"
     id="path202" />
  <rect
     x="160.28"
     y="242.03001"
     width="6.4400001"
     height="15.65"
     fill="#e0e0e0"
     id="rect204" />
  <rect
     x="174.26001"
     y="242.03001"
     width="6.4400001"
     height="15.65"
     fill="#e0e0e0"
     id="rect206" />
  <rect
     x="160.28"
     y="301.44"
     width="6.4400001"
     height="15.65"
     fill="#e0e0e0"
     id="rect212" />
  <rect
     x="174.26001"
     y="301.44"
     width="6.4400001"
     height="15.65"
     fill="#e0e0e0"
     id="rect214" />
  <rect
     x="109.7"
     y="225.95"
     width="82.43"
     height="3.4100001"
     fill="#e0e0e0"
     id="rect216" />
  <path
     d="m 187.25,229.68 c 0,0.13 -16,0.24 -35.77,0.24 -19.77,0 -35.78,-0.11 -35.78,-0.24 0,-0.13 16,-0.25 35.78,-0.25 19.78,0 35.77,0.11 35.77,0.25 z"
     fill="#ebebeb"
     id="path218" />
  <rect
     x="44.220001"
     y="146.84001"
     width="9.71"
     height="35.91"
     fill="#e0e0e0"
     id="rect226" />
  <rect
     x="22.780001"
     y="198.41002"
     width="9.7700005"
     height="20.6"
     fill="#ffffff"
     id="rect230" />
  <rect
     x="80.979996"
     y="198.41002"
     width="9.7700005"
     height="20.6"
     fill="#f5f5f5"
     id="rect234" />
  <path
     d="m 115.91,227.09 c 0,0.22 -12.92,0.39 -28.85,0.39 -15.93,0 -28.86,-0.17 -28.86,-0.39 0,-0.22 12.92,-0.39 28.86,-0.39 15.94,0 28.85,0.17 28.85,0.39 z"
     fill="#ebebeb"
     id="path236" />
  <rect
     x="80.979996"
     y="239.3"
     width="9.7700005"
     height="20.6"
     fill="#f5f5f5"
     id="rect238" />
  <path
     d="m 115.91,267.99 c 0,0.21 -12.92,0.39 -28.85,0.39 -15.93,0 -28.86,-0.18 -28.86,-0.39 0,-0.21 12.92,-0.4 28.86,-0.4 15.94,0 28.85,0.18 28.85,0.4 z"
     fill="#ebebeb"
     id="path240" />
  <rect
     x="80.979996"
     y="281.42999"
     width="9.7700005"
     height="20.6"
     fill="#f5f5f5"
     id="rect242" />
  <rect
     x="22.780001"
     y="239.93001"
     width="9.7700005"
     height="20.6"
     fill="#ffffff"
     id="rect250" />
  <rect
     x="22.780001"
     y="281.44998"
     width="9.7700005"
     height="20.6"
     fill="#ffffff"
     id="rect254" />
  <rect
     x="289.69"
     y="283.23999"
     width="131.08"
     height="41.099998"
     fill="#455a64"
     id="rect294" />
  <polygon
     transform="translate(-9.62,-58.759998)"
     points="252.46,377.73 270.4,351.73 597.21,351.73 597.21,323.4 207.7,323.4 207.7,377.73 "
     fill="#263238"
     id="polygon296" />
  <path
     d="m 195.29,92.600002 a 3.33,3.33 0 0 0 -3.46,-3.15 c -17.68,0.73 -101.67,4.58 -118.94,12.879998 -13.21,6.36 -27.7,30.1 -37.91,46.09 -7.32,11.46 -23.49,36.9 -26.76,49.91 -2.77,11 -4.44,33.88 -4.24,45.24 l 4.61,60.05 h 76.12 l 7.67,-19.84 a 33.48,33.48 0 0 1 31.26,-21.47 h 75.63 v -99.67 z"
     fill="#dbdbdb"
     id="path298" />
  <path
     d="m 63.87,108.98 c -10.47,10 -21,27 -28.89,39.44 -6.77,10.61 -21.14,33.2 -25.83,46.82 -0.08,0.25 -0.15,0.49 -0.24,0.74 2.32,-0.64 5.89,-2 7,-4.15 1.66,-3.33 3.81,-14.74 30.26,-57.81 8.05,-13.12 15.89,-20.78 17.7,-25.04 z"
     fill="#455a64"
     id="path300" />
  <path
     d="m 156.2,104.53 c -19.46,1.11 -61.65,4 -75.13,8.58 -17.56,6 -37.27,52.49 -38.2,54.53 l -13.29,34 a 1.48,1.48 0 0 0 1.41,1.95 h 34.33 a 11,11 0 0 0 3.8,-0.68 l 90.26,-33.67 a 10.42,10.42 0 0 0 6.79,-9.78 V 114 a 9.47,9.47 0 0 0 -9.97,-9.47 z"
     fill="#263238"
     id="path302" />
  <path
     d="m 33.38,200.24 c 0,0 12.74,-28.55 17,-37.88 6.46,-14.12 21.55,-43 31.74,-46.1 9.37,-2.81 36.31,-6.24 74.24,-8.41 h 0.36 a 6.15,6.15 0 0 1 6.13,6.15 v 46.51 a 5.64,5.64 0 0 1 -3.66,5.26 L 92.48,174 a 18.55,18.55 0 0 0 -13.21,8.24 l -11.56,17.63 a 6.21,6.21 0 0 1 -2.13,0.38 z"
     fill="#455a64"
     id="path304" />
  <path
     d="m 90.09,174.52 -22.71,25.26 12.55,-83.87 3.14,-1.08 -6.17,62.13 a 1.82,1.82 0 0 0 2.5,1.87 z"
     fill="#263238"
     id="path306" />
  <path
     d="m 2.49,249.39 c -0.08,-1.09 0.29,-2 0.84,-2 l 12.16,-1.15 c 1,-0.09 1.94,1.79 2.06,4 l 0.54,9.33 c 0.09,1.5 -0.36,2.77 -1,2.88 l -12.4,2.14 c -0.56,0.1 -1.09,-0.73 -1.17,-1.83 z"
     fill="#ebebeb"
     id="path308" />
  <rect
     x="2.4800005"
     y="292.97998"
     width="87.620003"
     height="35.130001"
     fill="#263238"
     id="rect310" />
  <circle
     cx="134.48186"
     cy="322.29965"
     r="47.939999"
     transform="rotate(-2.2)"
     fill="#263238"
     id="circle312" />
  <path
     d="m 98.85,316.07 c 0,0.05 0,0.09 0,0.13 a 47.934966,47.934966 0 1 0 95.86,1.38 c 0,0 0,-0.08 0,-0.12 z"
     fill="#263238"
     id="path314" />
  <path
     d="m 113.12,316.4 a 33.65,33.65 0 1 0 34.13,-33.16 33.65,33.65 0 0 0 -34.13,33.16 z"
     fill="#fafafa"
     id="path316" />
  <path
     d="m 147.25,283.24 a 33.65,33.65 0 0 0 -34.13,33.16 l 67.3,1 a 33.65,33.65 0 0 0 -33.17,-34.16 z"
     fill="#e0e0e0"
     id="path318" />
  <path
     d="m 126.27,316.59 a 20.5,20.5 0 1 0 20.79,-20.2 20.51,20.51 0 0 0 -20.79,20.2 z"
     fill="#263238"
     id="path320" />
  <rect
     x="41.900002"
     y="134.98001"
     width="19.870001"
     height="47.689999"
     rx="7.98"
     fill="#263238"
     id="rect322" />
  <rect
     x="30.15"
     y="207.61"
     width="13.48"
     height="15.61"
     fill="#263238"
     id="rect324" />
  <path
     d="m 84.38,105.88 1.2,-0.16 3.51,-0.41 13.59,-1.57 50.7,-5.769998 c 2.71,-0.29 5.46,-0.65 8.31,-0.9 a 15.51,15.51 0 0 1 4.34,0.28 16.73,16.73 0 0 1 4.17,1.58 15.49,15.49 0 0 1 6.31,6.559998 14.62,14.62 0 0 1 1.45,4.51 17.4,17.4 0 0 1 0.21,2.4 v 2.41 c 0,12.91 0,26.77 0,41.46 0,29.38 0,62.06 0,97 v 0.26 h -52.63 a 57.12,57.12 0 0 0 -9,0.43 35.06,35.06 0 0 0 -8.67,2.42 35.61,35.61 0 0 0 -19,19.65 27.31,27.31 0 0 0 -1.1,3.27 27.93,27.93 0 0 0 -0.76,3.35 l -0.26,1.7 -0.13,0.85 v 0.85 l -0.09,1.71 v 0.86 0.1 c 0.23,-0.22 -0.31,0.34 -0.27,0.28 h -66.8 v -0.25 c 0,-15.07 0,-29.6 0,-43.48 q 0,-10.41 0,-20.33 0,-4.95 0,-9.78 c 0,-1.61 0,-3.2 0,-4.79 0,-1.59 0.15,-3.17 0.34,-4.73 a 47.45,47.45 0 0 1 5.66,-17.22 l 8,-15 14.16,-26.56 11.53,-21.62 2.43,-4.55 c 0.4,-0.72 0.74,-1.45 1.17,-2.13 a 19.6,19.6 0 0 1 1.34,-1.91 28.22,28.22 0 0 1 6.07,-5.64 30.47,30.47 0 0 1 10.37,-4.51 26.3,26.3 0 0 1 3.86,-0.63 l -1,0.15 c -0.64,0.1 -1.61,0.27 -2.86,0.56 a 30.72,30.72 0 0 0 -10.3,4.56 28.43,28.43 0 0 0 -6,5.63 19.38,19.38 0 0 0 -1.33,1.9 c -0.41,0.67 -0.76,1.4 -1.15,2.13 l -2.37,4.57 -11.47,21.59 -14.1,26.59 q -3.82,7.23 -8,15 a 47.1,47.1 0 0 0 -5.6,17.09 c -0.18,1.55 -0.29,3.11 -0.33,4.69 -0.04,1.58 0,3.18 0,4.78 q 0,4.83 0,9.78 0,9.92 0,20.33 c 0,13.88 0,28.41 0,43.48 l -0.24,-0.24 h 66.59 c 0.07,-0.05 -0.48,0.48 -0.25,0.24 v -0.11 -0.86 l 0.09,-1.74 0.05,-0.86 0.12,-0.86 0.27,-1.73 a 28.76,28.76 0 0 1 0.77,-3.4 27.51,27.51 0 0 1 1.11,-3.32 35.48,35.48 0 0 1 28.05,-22.4 57.27,57.27 0 0 1 9,-0.43 h 52.42 l -0.25,0.25 c 0,-34.9 0,-67.58 0,-97 0,-14.69 0,-28.55 0,-41.46 a 28.62,28.62 0 0 0 -0.21,-4.75 14.3,14.3 0 0 0 -1.4,-4.41 15.15,15.15 0 0 0 -6.15,-6.399998 16.11,16.11 0 0 0 -4.07,-1.55 15.23,15.23 0 0 0 -4.25,-0.29 c -2.82,0.24 -5.59,0.6 -8.29,0.89 l -50.69,5.609998 -13.6,1.49 -3.52,0.37 z"
     fill="#263238"
     id="path326" />
  <path
     d="m 162.25,216.4 c 0,0 0.27,0 0.78,-0.12 a 5.33,5.33 0 0 0 2.06,-0.82 5.26,5.26 0 0 0 2.09,-2.72 6,6 0 0 0 0.27,-2.16 5.39,5.39 0 0 0 -0.61,-2.32 5.18,5.18 0 0 0 -4.51,-2.75 h -6.6 -15.12 a 5.11,5.11 0 0 0 -5.08,4.55 5.77,5.77 0 0 0 0.62,3.45 5.27,5.27 0 0 0 2.51,2.23 7.91,7.91 0 0 0 3.25,0.39 h 3.21 5.75 l 8.33,0.08 2.26,0.05 a 3.71,3.71 0 0 1 0.79,0.05 6.93,6.93 0 0 1 -0.79,0 l -2.26,0.05 -8.33,0.08 h -5.75 -3.21 c -0.55,0 -1.09,0 -1.69,0 a 5.87,5.87 0 0 1 -1.74,-0.4 5.62,5.62 0 0 1 -2.75,-2.42 6.21,6.21 0 0 1 -0.7,-3.75 5.63,5.63 0 0 1 5.58,-5 h 15.12 6.61 a 5.56,5.56 0 0 1 4.82,3 5.67,5.67 0 0 1 0.61,2.49 6.11,6.11 0 0 1 -0.32,2.25 5.45,5.45 0 0 1 -2.26,2.8 5.15,5.15 0 0 1 -2.15,0.75 3.37,3.37 0 0 1 -0.79,0.24 z"
     fill="#263238"
     id="path328" />
  <path
     d="m 160.38,203.84 a 73.3,73.3 0 0 1 -8.58,0.25 73.2,73.2 0 0 1 -8.57,-0.25 71.79,71.79 0 0 1 8.57,-0.26 71.89,71.89 0 0 1 8.58,0.26 z"
     fill="#ffffff"
     id="path330" />
  <path
     d="m 94.08,328.4 -8,-0.58 c 2.09,-28.65 5.15,-45.79 9.36,-52.4 8.08,-12.7 16.11,-15 25,-16.51 8.28,-1.41 16.64,-1.07 24.72,-0.75 l 2,0.08 c 16.68,0.65 51.62,0.07 52,0.07 l 0.14,8 c -0.35,0 -35.52,0.59 -52.42,-0.07 l -2,-0.08 c -7.67,-0.3 -15.6,-0.63 -23.05,0.65 -8,1.36 -13.25,2.9 -19.62,12.92 -1.93,3.02 -5.55,13.38 -8.13,48.67 z"
     fill="#263238"
     id="path332" />
  <rect
     x="203.42"
     y="0"
     width="393.98001"
     height="262.32001"
     fill="#455a64"
     id="rect334" />
  <path
     d="m 592.67,259.17 c 0,-1.69 -0.08,-97.9 -0.2,-251.1999983 l 0.2,0.2 -385,0.06 v 0 l 0.26,-0.26 c 0,89.2900003 0,174.2799983 0,251.1999983 l -0.23,-0.24 385,0.24 -385,0.24 h -0.32 v -0.24 c 0,-76.92 0,-161.909998 0,-251.1999983 v -0.26 h 0.29 385 0.21 v 0.21 C 592.76,161.24 592.68,257.49 592.67,259.17 Z"
     fill="#263238"
     id="path336" />
  <path
     d="m 147.38,126.24 c 0,0 -0.11,0.12 -0.36,0.31 l -1.1,0.8 c -1,0.68 -2.37,1.64 -4.12,2.83 -3.49,2.36 -8.35,5.58 -13.77,9 -5.42,3.42 -10.37,6.54 -14,8.73 -1.81,1.09 -3.27,2 -4.29,2.56 l -1.19,0.67 a 2.22,2.22 0 0 1 -0.43,0.2 c 0,0 0.12,-0.12 0.38,-0.29 l 1.13,-0.76 4.2,-2.69 13.89,-8.86 13.85,-8.92 4.2,-2.69 1.16,-0.72 a 2.73,2.73 0 0 1 0.45,-0.17 z"
     fill="#fafafa"
     id="path346" />
  <path
     d="m 130.32,130.78 c 0,0 -0.12,0.12 -0.36,0.31 -0.24,0.19 -0.67,0.48 -1.11,0.79 -1,0.68 -2.37,1.65 -4.11,2.83 -3.49,2.37 -8.35,5.58 -13.77,9.06 -5.42,3.48 -10.37,6.54 -14,8.73 -1.8,1.09 -3.27,2 -4.29,2.55 l -1.18,0.67 c -0.27,0.15 -0.42,0.22 -0.43,0.2 a 2,2 0 0 1 0.38,-0.29 l 1.13,-0.75 4.2,-2.7 13.89,-8.85 c 5.37,-3.47 10.24,-6.6 13.85,-8.92 l 4.2,-2.7 1.16,-0.71 a 1.91,1.91 0 0 1 0.44,-0.22 z"
     fill="#fafafa"
     id="path348" />
  <path
     d="m 46.13,159.89 a 3.49,3.49 0 0 1 -0.31,-0.88 c -0.16,-0.57 -0.38,-1.41 -0.62,-2.45 a 35.55,35.55 0 0 1 -1.06,-8.3 17.82,17.82 0 0 1 1.91,-8.14 11.83,11.83 0 0 1 1.41,-2.12 c 0.39,-0.45 0.64,-0.67 0.67,-0.65 a 30.68,30.68 0 0 0 -1.75,2.94 19.34,19.34 0 0 0 -1.71,8 43.46,43.46 0 0 0 0.9,8.22 26,26 0 0 1 0.56,3.38 z"
     fill="#fafafa"
     id="path350" />
  <path
     d="m 115,250.24 c 0,0.11 -1.92,0.39 -4.92,1.35 a 39.38,39.38 0 0 0 -5.1,2.07 42.68,42.68 0 0 0 -5.76,3.5 41.07,41.07 0 0 0 -5.06,4.45 37.58,37.58 0 0 0 -3.51,4.25 c -1.82,2.57 -2.66,4.34 -2.76,4.29 a 7.71,7.71 0 0 1 0.56,-1.26 15,15 0 0 1 0.76,-1.42 c 0.33,-0.54 0.67,-1.17 1.14,-1.82 a 34.13,34.13 0 0 1 3.46,-4.37 39.73,39.73 0 0 1 5.1,-4.54 38.76,38.76 0 0 1 5.86,-3.51 34.72,34.72 0 0 1 5.21,-2 c 0.75,-0.25 1.46,-0.39 2.07,-0.54 a 15.1,15.1 0 0 1 1.58,-0.3 7.27,7.27 0 0 1 1.37,-0.15 z"
     fill="#fafafa"
     id="path354" />
  <circle
     cx="487.84167"
     cy="336.61386"
     r="47.939999"
     transform="rotate(-2.29)"
     fill="#263238"
     id="circle356" />
  <path
     d="m 467.22,316.4 a 33.65,33.65 0 1 0 34.16,-33.16 33.65,33.65 0 0 0 -34.16,33.16 z"
     fill="#fafafa"
     id="path360" />
  <path
     d="m 501.38,283.24 a 33.65,33.65 0 0 0 -34.13,33.16 l 67.3,1 a 33.65,33.65 0 0 0 -33.17,-34.16 z"
     fill="#e0e0e0"
     id="path362" />
  <path
     d="m 480.38,316.59 a 20.5,20.5 0 1 0 20.79,-20.2 20.51,20.51 0 0 0 -20.79,20.2 z"
     fill="#263238"
     id="path364" />
  <path
     d="m 437.85,330.02 c 0,0 -7.3,-68 63.16,-68 65,0 63.56,58.48 63,67.53 h -10.2 c 0,0 5.2,-57.64 -52.75,-57.64 -57.95,0 -52.9,58.81 -52.9,58.81 0,0 -4.33,-0.21 -10.31,-0.7 z"
     fill="#455a64"
     id="path366" />
  <rect
     id="rect368"
     fill="#263238"
     height="222.77"
     width="353.57999"
     y="21.470005"
     x="223.98001" />
  <g
     id="parcels"
     transform="translate(-9.952774,-59.092772)">
    <g
       id="g2384">
      <polygon
         points="338.14,124.97 314.79,126.55 311.36,230.1 342.23,231.43 "
         fill="#e1ab63"
         id="polygon370" />
      <polygon
         points="337.75,124.97 387.62,129.21 383.86,232.18 337.75,232.18 "
         fill="#cf9652"
         id="polygon374" />
      <polygon
         points="341.11,209.49 407.81,211.23 406.23,270.32 343.68,269.57 "
         fill="#c68a4a"
         id="polygon398" />
      <polygon
         points="407.04,211.21 407.81,211.23 407.76,213.01 378.52,244.06 341.16,210.6 341.11,209.49 342.2,209.52 378.52,242.9 "
         fill="#b88248"
         id="polygon414" />
      <polygon
         points="337.3,112.73 313.95,114.31 310.51,217.86 341.39,219.19 "
         fill="#e1ab63"
         id="polygon438" />
      <polygon
         points="336.9,112.73 386.78,116.97 383.02,219.94 336.9,219.94 "
         fill="#cf9652"
         id="polygon442" />
      <path
         d="m 331.76,218.52 c 0,0 0,-58.34 -0.53,-59.33 -0.53,-0.99 -42.49,-5.16 -43.81,-4.82 -1.32,0.34 -2.11,65.81 -2.11,65.81 z"
         fill="#c58f50"
         id="path450" />
      <polygon
         points="340.27,197.25 406.97,198.99 405.39,258.08 342.84,257.33 "
         fill="#c68a4a"
         id="polygon466" />
      <polygon
         points="406.2,198.97 406.97,198.99 406.92,200.77 377.68,231.82 340.32,198.36 340.27,197.25 341.36,197.28 377.68,230.66 "
         fill="#b88248"
         id="polygon482" />
      <path
         d="m 342.87,229.53 a 51.5,51.5 0 0 0 -12,8.95 l 0.44,-18.18 41.7,1.34 0.07,4.17 c -8.81,-2.99 -19.68,-1.97 -30.21,3.72 z"
         fill="#d29957"
         id="path530" />
      <polygon
         points="361.67,212.84 343.19,214.63 343.82,245.04 361.85,245.37 "
         fill="#bf724d"
         id="polygon600" />
      <polygon
         points="403.64,245.27 404.4,245.29 404.35,247.03 375.73,277.42 339.17,244.67 339.12,243.58 340.19,243.61 375.73,276.28 "
         fill="#b88248"
         id="polygon630" />
    </g>
    <g
       id="g2346">
      <g
         id="g2350">
        <path
           d="m 267.24,221 c 0,0 0,-58.34 0.24,-59.37 0.24,-1.03 19.68,-7.43 20.29,-7.17 0.61,0.26 1,65.7 1,65.7 z"
           fill="#e1ab63"
           id="path448" />
      </g>
      <rect
         x="450.84"
         y="142.08"
         width="10.31"
         height="21.74"
         fill="#e0e0e0"
         id="rect88" />
      <rect
         x="389.39001"
         y="98.269997"
         width="10.31"
         height="21.74"
         fill="#fafafa"
         id="rect106" />
      <path
         d="m 426.26,128.55 c 0,0.23 -13.64,0.41 -30.46,0.41 -16.82,0 -30.46,-0.18 -30.46,-0.41 0,-0.23 13.64,-0.42 30.46,-0.42 16.82,0 30.46,0.19 30.46,0.42 z"
         fill="#e0e0e0"
         id="path108" />
      <rect
         x="389.39001"
         y="142.10001"
         width="10.31"
         height="21.74"
         fill="#fafafa"
         id="rect110" />
      <polygon
         points="329.32,128.31 336.43,127.3 336.31,132.55 329.44,133.69 "
         fill="#eebe7a"
         id="polygon432" />
      <polygon
         points="328,136.58 332.85,135.89 332.77,139.48 328.08,140.26 "
         fill="#eebe7a"
         id="polygon434" />
      <polygon
         points="328.48,116.07 335.59,115.06 335.46,120.31 328.6,121.45 "
         fill="#eebe7a"
         id="polygon500" />
      <polygon
         points="327.15,124.34 332.01,123.65 331.93,127.24 327.24,128.02 "
         fill="#eebe7a"
         id="polygon502" />
      <polygon
         points="344.02,155.95 347.29,100.03 357.24,101.47 361.26,150.43 "
         fill="#cf9652"
         id="polygon506" />
      <path
         d="m 275.3,175.08 c 0,0 0,-72.17 0.31,-73.44 0.31,-1.27 24.33,-9.2 25.09,-8.87 0.76,0.33 1.21,81.28 1.21,81.28 z"
         fill="#e1ab63"
         id="path508" />
      <path
         d="m 355.12,172 c 0,0 0,-72.17 -0.65,-73.4 -0.65,-1.23 -52.56,-6.38 -54.19,-6 -1.63,0.38 -2.61,81.42 -2.61,81.42 z"
         fill="#c58f50"
         id="path510" />
      <polygon
         points="394.38,147.94 394.15,106.81 370.79,109.07 371.58,147.52 "
         fill="#bf724d"
         id="polygon512" />
      <path
         d="m 406.73,107.67 9.14,0.62 c 0,7.18 -0.35,30.8 -0.47,39.37 l -12.61,0.16 z"
         fill="#eebe7a"
         id="path514" />
      <polygon
         points="330.92,100.59 342.06,100.13 342.1,109.59 331.87,109 "
         fill="#e1ab63"
         id="polygon554" />
      <polygon
         points="321.46,105.33 328.27,105.05 328.3,110.83 322.04,110.47 "
         fill="#e1ab63"
         id="polygon556" />
      <path
         d="m 405.62,118.93 1.11,-11.26 9.14,0.62 c 0,1.23 0,3 0,5 -3.29,0.27 -6.87,2.26 -10.25,5.64 z"
         fill="#e1ab63"
         id="path560" />
      <polygon
         points="395.89,117.27 395.73,83.8 413.33,84.4 416.49,115.29 "
         fill="#f2bc86"
         id="polygon564" />
      <polygon
         points="397.72,117.27 395.89,83.8 358.37,84 357.04,115.26 "
         fill="#e0ad77"
         id="polygon566" />
      <polygon
         points="359.21,195.76 356.5,113.06 437.9,111.99 437.5,196.7 "
         fill="#f3c68e"
         id="polygon568" />
      <polygon
         points="474.36,194.29 472.51,113.06 437.9,111.99 435.78,196.7 "
         fill="#ffdba7"
         id="polygon570" />
      <polygon
         points="372.49,94.09 360.2,93.42 360.47,85.8 372.36,86.2 "
         fill="#fdc493"
         id="polygon590" />
      <polygon
         points="392.74,153.33 392.57,120.57 409.8,121.16 412.89,151.39 "
         fill="#f2bc86"
         id="polygon680" />
      <polygon
         points="394.52,153.33 392.74,120.57 356.01,120.77 354.71,151.37 "
         fill="#e0ad77"
         id="polygon682" />
      <polygon
         points="369.83,130.64 357.81,129.99 358.07,122.53 369.7,122.93 "
         fill="#fdc493"
         id="polygon710" />
      <polygon
         points="371.93,220 366.14,145.67 323.78,153.69 327.87,220.93 "
         fill="#eebe7a"
         id="polygon516" />
    </g>
    <g
       id="g2162"
       class="1">
      <path
         d="m 326.71,191.05 c 0,0.14 -13.51,3 -30.22,6.36 -16.71,3.36 -30.3,6 -30.33,5.86 -0.03,-0.14 13.5,-3 30.22,-6.37 16.72,-3.37 30.3,-5.99 30.33,-5.85 z"
         fill="#fafafa"
         id="path344" />
      <polygon
         points="326.27,172.59 334.31,173.75 337.56,213.33 323.63,217.8 "
         fill="#cf9652"
         id="polygon372" />
      <path
         d="m 268.08,233.26 c 0,0 0,-58.34 0.24,-59.37 0.24,-1.03 19.68,-7.43 20.29,-7.17 0.61,0.26 1,65.7 1,65.7 z"
         fill="#e1ab63"
         id="path380" />
      <path
         d="m 332.6,230.76 c 0,0 0,-58.34 -0.53,-59.33 -0.53,-0.99 -42.49,-5.16 -43.81,-4.82 -1.32,0.34 -2.11,65.81 -2.11,65.81 z"
         fill="#c58f50"
         id="path382" />
      <polygon
         points="341.51,209.49 307.26,215.97 310.57,270.32 346.19,269.57 "
         fill="#eebe7a"
         id="polygon392" />
      <polygon
         points="327.45,253.24 334.28,252.25 337.35,266.83 326.46,267.95 "
         fill="#e1ab63"
         id="polygon394" />
      <polygon
         points="313.55,228.7 320.75,229.36 323.99,259.84 312.51,257.85 "
         fill="#e1ab63"
         id="polygon396" />
      <polygon
         points="283.51,226.94 317.22,228.02 317.95,270.32 282.46,269.79 "
         fill="#e1ab63"
         id="polygon402" />
      <path
         d="m 316.24,251.37 a 51,51 0 0 0 -5.46,-23.55 l 6.44,0.2 0.73,42.3 -5.06,-0.08 a 53,53 0 0 0 3.35,-18.87 z"
         fill="#d29957"
         id="path404" />
      <path
         d="m 292.82,234.4 a 42,42 0 0 0 -9.67,7.23 l 0.36,-14.69 33.71,1.06 0.06,3.37 c -7.15,-2.37 -15.95,-1.58 -24.46,3.03 z"
         fill="#d29957"
         id="path406" />
      <polygon
         points="265.31,229.76 283.51,226.94 284.01,270.32 265.04,269.79 "
         fill="#eebe7a"
         id="polygon408" />
      <polygon
         points="302.91,251.54 331.98,252.08 331.29,270.32 302.12,270.09 "
         fill="#c58f50"
         id="polygon410" />
      <polygon
         points="331.98,252.08 331.29,270.32 302.12,270.09 302.35,264.73 315.46,264.83 315.95,251.78 "
         fill="#a87440"
         id="polygon412" />
      <polygon
         points="339.23,214.85 339.33,222.08 331.41,222.45 330.62,216.09 "
         fill="#fbd7ab"
         id="polygon416" />
      <polygon
         points="293.08,243.58 292.53,249.73 285.64,250.04 285.41,243.14 "
         fill="#fbca8c"
         id="polygon418" />
      <polygon
         points="290.32,237.37 289.95,241.52 285.3,241.73 285.15,237.07 "
         fill="#fbca8c"
         id="polygon424" />
      <polygon
         points="322.04,172.67 322.07,180.32 313.8,179.84 313.03,173.04 "
         fill="#e1ab63"
         id="polygon426" />
      <polygon
         points="310.9,176.65 310.92,181.32 305.86,181.03 305.39,176.87 "
         fill="#e1ab63"
         id="polygon428" />
      <polygon
         points="315.31,253.43 314.99,257.85 310.13,257.42 309.98,253.47 "
         fill="#e1ab63"
         id="polygon430" />
      <polygon
         points="340.67,197.25 306.43,203.73 309.73,258.08 345.35,257.33 "
         fill="#eebe7a"
         id="polygon460" />
      <polygon
         points="326.61,241 333.44,240 336.51,254.59 325.62,255.71 "
         fill="#e1ab63"
         id="polygon462" />
      <polygon
         points="312.71,216.46 319.91,217.12 323.15,247.6 311.67,245.62 "
         fill="#e1ab63"
         id="polygon464" />
      <polygon
         points="282.67,214.7 316.38,215.78 317.11,258.08 281.62,257.55 "
         fill="#e1ab63"
         id="polygon470" />
      <path
         d="m 315.4,239.13 a 51,51 0 0 0 -5.46,-23.55 l 6.44,0.2 0.73,42.3 -5.06,-0.08 a 53,53 0 0 0 3.35,-18.87 z"
         fill="#d29957"
         id="path472" />
      <path
         d="m 292,222.16 a 42.26,42.26 0 0 0 -9.67,7.23 l 0.36,-14.69 33.71,1.08 0.06,3.37 c -7.17,-2.41 -15.97,-1.6 -24.46,3.01 z"
         fill="#d29957"
         id="path474" />
      <polygon
         points="264.46,217.53 282.67,214.7 283.17,258.08 264.2,257.55 "
         fill="#eebe7a"
         id="polygon476" />
      <polygon
         points="302.07,239.3 331.14,239.84 330.45,258.08 301.28,257.85 "
         fill="#c58f50"
         id="polygon478" />
      <polygon
         points="331.14,239.84 330.45,258.08 301.28,257.85 301.51,252.49 314.62,252.6 315.11,239.54 "
         fill="#a87440"
         id="polygon480" />
      <polygon
         points="338.39,202.61 338.49,209.84 330.57,210.21 329.78,203.85 "
         fill="#fbd7ab"
         id="polygon484" />
      <polygon
         points="292.24,231.34 291.69,237.49 284.8,237.8 284.57,230.9 "
         fill="#fbca8c"
         id="polygon486" />
      <polygon
         points="289.48,225.13 289.11,229.28 284.46,229.49 284.31,224.84 "
         fill="#fbca8c"
         id="polygon492" />
      <polygon
         points="314.47,241.19 314.14,245.61 309.29,245.18 309.14,241.22 "
         fill="#e1ab63"
         id="polygon498" />
      <polygon
         points="331.56,169.44 340.47,170.26 344.47,207.96 330.27,205.51 "
         fill="#e1ab63"
         id="polygon520" />
      <polygon
         points="294.4,167.26 336.09,168.6 337,220.93 293.1,220.26 "
         fill="#e1ab63"
         id="polygon526" />
      <path
         d="m 334.88,197.49 a 63,63 0 0 0 -6.75,-29.14 l 8,0.25 0.91,52.33 -6.26,-0.1 a 65.7,65.7 0 0 0 4.1,-23.34 z"
         fill="#d29957"
         id="path528" />
      <polygon
         points="271.88,170.76 294.4,167.26 295.01,220.93 271.55,220.26 "
         fill="#eebe7a"
         id="polygon532" />
      <polygon
         points="318.39,197.69 354.36,198.36 353.5,220.93 317.42,220.64 "
         fill="#c58f50"
         id="polygon534" />
      <polygon
         points="354.36,198.36 353.5,220.93 317.42,220.64 317.7,214.01 333.92,214.14 334.53,197.99 "
         fill="#a87440"
         id="polygon536" />
      <polygon
         points="306.23,187.84 305.55,195.45 297.03,195.84 296.75,187.3 "
         fill="#fbca8c"
         id="polygon542" />
      <polygon
         points="302.82,180.17 302.36,185.3 296.61,185.56 296.42,179.8 "
         fill="#fbca8c"
         id="polygon552" />
      <polygon
         points="333.73,200.03 333.33,205.5 327.32,204.97 327.14,200.07 "
         fill="#e1ab63"
         id="polygon558" />
      <polygon
         points="324.59,207.47 332.47,208.61 335.65,247.34 322.01,251.71 "
         fill="#cf9652"
         id="polygon594" />
      <polygon
         points="339.51,243.58 306,249.93 309.23,303.12 344.09,302.38 "
         fill="#eebe7a"
         id="polygon608" />
      <polygon
         points="325.75,286.4 332.44,285.43 335.44,299.7 324.79,300.8 "
         fill="#e1ab63"
         id="polygon610" />
      <polygon
         points="312.15,262.39 319.2,263.03 322.37,292.86 311.13,290.92 "
         fill="#e1ab63"
         id="polygon612" />
      <polygon
         points="339.12,243.58 404.4,245.29 402.85,303.12 341.64,302.38 "
         fill="#c68a4a"
         id="polygon614" />
      <path
         d="m 314.78,284.57 a 49.85,49.85 0 0 0 -5.34,-23.05 l 6.3,0.2 0.72,41.4 -5,-0.08 a 52,52 0 0 0 3.32,-18.47 z"
         fill="#d29957"
         id="path620" />
      <path
         d="m 291.86,268 a 41,41 0 0 0 -9.46,7 l 0.35,-14.38 33,1.06 0.06,3.3 c -7.01,-2.33 -15.62,-1.53 -23.95,3.02 z"
         fill="#d29957"
         id="path622" />
      <polygon
         points="264.93,263.43 282.75,260.66 283.24,303.12 264.68,302.59 "
         fill="#eebe7a"
         id="polygon624" />
      <polygon
         points="301.74,284.74 330.19,285.26 329.51,303.12 300.96,302.89 "
         fill="#c58f50"
         id="polygon626" />
      <polygon
         points="330.19,285.26 329.51,303.12 300.96,302.89 301.19,297.65 314.02,297.75 314.5,284.97 "
         fill="#a87440"
         id="polygon628" />
      <polygon
         points="337.28,248.83 337.38,255.9 329.63,256.27 328.85,250.05 "
         fill="#fbd7ab"
         id="polygon632" />
      <path
         d="m 267.64,266.84 c 0,0 0,-57.09 0.24,-58.1 0.24,-1.01 19.26,-7.27 19.86,-7 0.6,0.27 0.95,64.31 0.95,64.31 z"
         fill="#e1ab63"
         id="path642" />
      <g
         id="ttt2">
        <polygon
           id="polygon544"
           fill="#e1ab63"
           points="261.26,178.28 290.34,179.42 290.97,223.93 260.35,223.36 " />
        <polygon
           id="polygon546"
           fill="#eebe7a"
           points="234.87,181.25 260.98,178.28 261.68,223.93 234.5,223.36 " />
        <polygon
           id="polygon548"
           fill="#fbd7ab"
           points="246.33,209.15 245.65,216.75 237.12,217.14 236.84,208.6 " />
        <polygon
           id="polygon550"
           fill="#fbd7ab"
           points="253.99,211.59 253.57,216.3 248.29,216.54 248.12,211.25 " />
        <polygon
           id="polygon618"
           fill="#e1ab63"
           points="282.75,260.66 315.74,261.72 316.46,303.12 281.72,302.59 " />
        <polygon
           id="polygon634"
           fill="#fbca8c"
           points="292.11,276.94 291.58,282.96 284.83,283.27 284.61,276.51 " />
        <g
           id="aa"
           transform="translate(-0.06,-0.23)">
          <polygon
             points="256.5,233.42 257.07,270.32 235.09,269.87 235.4,235.82 "
             fill="#eebe7a"
             id="polygon378" />
          <g
             id="test">
            <polygon
               id="polygon376"
               fill="#e1ab63"
               points="280.23,234.34 280.74,270.32 255.99,269.87 256.72,233.42 " />
            <polygon
               id="polygon420"
               fill="#fbd7ab"
               points="244.11,264.52 237.21,264.83 236.99,257.93 244.65,258.37 " />
            <polygon
               id="polygon422"
               fill="#fbd7ab"
               points="250.51,264.15 246.24,264.35 246.1,260.08 250.85,260.35 " />
            <polygon
               id="polygon444"
               fill="#e1ab63"
               points="279.39,222.1 279.9,258.08 255.15,257.63 255.88,221.18 " />
            <polygon
               id="polygon446"
               fill="#eebe7a"
               points="256.23,258.08 234.25,257.63 234.56,223.59 255.65,221.18 "
               transform="translate(0.23)" />
            <polygon
               id="polygon488"
               fill="#fbd7ab"
               points="243.26,252.28 236.37,252.6 236.15,245.69 243.81,246.13 " />
            <polygon
               id="polygon490"
               fill="#fbd7ab"
               points="249.67,251.92 245.4,252.11 245.26,247.84 250,248.11 " />
            <polygon
               transform="translate(-0.79,0.51)"
               id="polygon596"
               fill="#e1ab63"
               points="280.04,303.12 255.81,302.67 256.53,267 279.54,267.91 " />
            <polygon
               id="polygon598"
               fill="#eebe7a"
               points="235.36,302.67 235.66,269.36 256.31,267 256.87,303.12 "
               transform="translate(-0.57,0.51)" />
            <polygon
               transform="translate(-0.79,0.51)"
               id="polygon636"
               fill="#fbd7ab"
               points="237.44,297.75 237.22,290.99 244.72,291.42 244.19,297.44 " />
            <polygon
               transform="translate(-0.79,0.51)"
               id="polygon638"
               fill="#fbd7ab"
               points="246.27,297.27 246.14,293.09 250.78,293.36 250.45,297.08 " />
          </g>
        </g>
        <polygon
           id="polygon640"
           fill="#fbca8c"
           points="289.41,270.87 289.05,274.93 284.5,275.14 284.35,270.58 " />
        <path
           id="path644"
           fill="#c58f50"
           d="m 330.79,264.4 c 0,0 0,-57.09 -0.52,-58.07 -0.52,-0.98 -41.58,-5 -42.87,-4.72 -1.29,0.28 -2.06,64.39 -2.06,64.39 z" />
      </g>
      <polygon
         points="320.45,207.55 320.49,215.03 312.39,214.57 311.64,207.91 "
         fill="#e1ab63"
         id="polygon646" />
      <polygon
         points="309.55,211.44 309.57,216.01 304.62,215.73 304.16,211.66 "
         fill="#e1ab63"
         id="polygon648" />
      <polygon
         points="313.87,286.58 313.55,290.92 308.8,290.49 308.65,286.62 "
         fill="#e1ab63"
         id="polygon658" />
      <polygon
         points="336.21,160.87 313.36,162.41 310,263.75 340.22,265.05 "
         fill="#e1ab63"
         id="polygon660" />
      <polygon
         points="335.83,160.87 384.64,165.01 380.96,265.78 335.83,265.78 "
         fill="#cf9652"
         id="polygon662" />
      <polygon
         points="334.54,163.14 334.42,168.29 327.7,169.4 327.58,164.13 "
         fill="#eebe7a"
         id="polygon664" />
      <polygon
         points="331.04,171.56 330.96,175.07 326.37,175.83 326.28,172.23 "
         fill="#eebe7a"
         id="polygon666" />
    </g>
    <g
       id="g2311">
      <polygon
         points="467.37,142.03 548.76,140.96 548.37,225.67 470.08,224.74 "
         fill="#f3c68e"
         id="polygon572" />
      <polygon
         points="583.38,142.03 548.76,140.96 546.65,225.67 585.23,223.27 "
         fill="#ffdba7"
         id="polygon574" />
      <g
         id="g1548">
        <path
           id="path650"
           fill="#e1ab63"
           d="m 527.08,154.22 c 0,0 0,-51.19 0.22,-52.09 0.22,-0.9 17.26,-6.52 17.8,-6.29 0.54,0.23 0.86,57.65 0.86,57.65 z" />
        <path
           id="path652"
           fill="#c58f50"
           d="m 583.7,152 c 0,0 0,-51.19 -0.46,-52.06 -0.46,-0.87 -37.24,-4.49 -38.44,-4.2 -1.2,0.29 -1.8,57.75 -1.8,57.75 z" />
        <polygon
           id="polygon654"
           fill="#e1ab63"
           points="567.2,107.35 566.53,101.39 574.43,101.06 574.46,107.77 " />
        <polygon
           id="polygon656"
           fill="#e1ab63"
           points="560.24,108.39 559.83,104.75 564.66,104.55 564.67,108.65 " />
      </g>
      <polygon
         points="493.07,130.54 472.99,131.9 470.04,220.96 496.59,222.11 "
         fill="#e1ab63"
         id="polygon668" />
      <polygon
         points="492.73,130.54 535.63,134.19 532.4,222.75 492.73,222.75 "
         fill="#cf9652"
         id="polygon670" />
      <polygon
         points="491.6,132.55 491.49,137.06 485.59,138.05 485.48,133.42 "
         fill="#eebe7a"
         id="polygon672" />
      <polygon
         points="488.52,139.94 488.45,143.03 484.42,143.7 484.35,140.53 "
         fill="#eebe7a"
         id="polygon674" />
    </g>
    <g
       id="g2298">
      <path
         id="path276"
         fill="#f5f5f5"
         d="m 367.92,161.25 c 0.09,0 0,9.18 0,9.18 h -4.47 v -9.18 z" />
      <rect
         x="450.84"
         y="186.56"
         width="10.31"
         height="21.74"
         fill="#e0e0e0"
         id="rect92" />
      <path
         d="m 487.7,216.83 c 0,0.23 -13.63,0.42 -30.45,0.42 -16.82,0 -30.46,-0.19 -30.46,-0.42 0,-0.23 13.63,-0.41 30.46,-0.41 16.83,0 30.45,0.19 30.45,0.41 z"
         fill="#e0e0e0"
         id="path94" />
      <rect
         x="450.84"
         y="229.75999"
         width="10.31"
         height="21.74"
         fill="#e0e0e0"
         id="rect96" />
      <path
         d="m 487.7,260 c 0,0.23 -13.63,0.41 -30.45,0.41 -16.82,0 -30.46,-0.18 -30.46,-0.41 0,-0.23 13.63,-0.42 30.46,-0.42 16.83,0 30.45,0.23 30.45,0.42 z"
         fill="#e0e0e0"
         id="path98" />
      <rect
         x="450.84"
         y="273.13"
         width="10.31"
         height="21.74"
         fill="#e0e0e0"
         id="rect100" />
      <path
         d="m 426.26,172.38 c 0,0.23 -13.64,0.41 -30.46,0.41 -16.82,0 -30.46,-0.18 -30.46,-0.41 0,-0.23 13.66,-0.38 30.46,-0.38 16.8,0 30.46,0.15 30.46,0.38 z"
         fill="#e0e0e0"
         id="path112" />
      <rect
         x="389.39001"
         y="185.92999"
         width="10.31"
         height="21.74"
         fill="#fafafa"
         id="rect114" />
      <path
         d="m 426.26,216.21 c 0,0.23 -13.64,0.41 -30.46,0.41 -16.82,0 -30.46,-0.18 -30.46,-0.41 0,-0.23 13.64,-0.42 30.46,-0.42 16.82,0 30.46,0.21 30.46,0.42 z"
         fill="#e0e0e0"
         id="path116" />
      <rect
         x="389.39001"
         y="229.75999"
         width="10.31"
         height="21.74"
         fill="#fafafa"
         id="rect118" />
      <path
         d="m 426.26,260 c 0,0.23 -13.64,0.41 -30.46,0.41 -16.82,0 -30.46,-0.18 -30.46,-0.41 0,-0.23 13.64,-0.42 30.46,-0.42 16.82,0 30.46,0.23 30.46,0.42 z"
         fill="#e0e0e0"
         id="path120" />
      <rect
         x="389.39001"
         y="273.59"
         width="10.31"
         height="21.74"
         fill="#fafafa"
         id="rect122" />
      <rect
         x="476.73999"
         y="222.08"
         width="5.6300001"
         height="11.88"
         fill="#fafafa"
         id="rect138" />
      <path
         d="m 496.88,238.63 c 0,0.12 -7.45,0.22 -16.63,0.22 -9.18,0 -16.65,-0.1 -16.65,-0.22 0,-0.12 7.45,-0.23 16.65,-0.23 9.2,0 16.63,0.1 16.63,0.23 z"
         fill="#e0e0e0"
         id="path140" />
      <rect
         x="510.31"
         y="222.08"
         width="5.6300001"
         height="11.88"
         fill="#e0e0e0"
         id="rect142" />
      <path
         d="m 530.45,238.63 c 0,0.12 -7.45,0.22 -16.64,0.22 -9.19,0 -16.64,-0.1 -16.64,-0.22 0,-0.12 7.45,-0.23 16.64,-0.23 9.19,0 16.64,0.1 16.64,0.23 z"
         fill="#e0e0e0"
         id="path144" />
      <rect
         x="510.31"
         y="245.67"
         width="5.6300001"
         height="11.88"
         fill="#e0e0e0"
         id="rect146" />
      <path
         d="m 530.45,262.21 c 0,0.13 -7.45,0.23 -16.64,0.23 -9.19,0 -16.64,-0.1 -16.64,-0.23 0,-0.13 7.45,-0.22 16.64,-0.22 9.19,0 16.64,0.1 16.64,0.22 z"
         fill="#e0e0e0"
         id="path148" />
      <rect
         x="510.31"
         y="269.97"
         width="5.6300001"
         height="11.88"
         fill="#e0e0e0"
         id="rect150" />
      <path
         d="m 530.45,286.51 c 0,0.13 -7.45,0.23 -16.64,0.23 -9.19,0 -16.64,-0.1 -16.64,-0.23 0,-0.13 7.45,-0.23 16.64,-0.23 9.19,0 16.64,0.1 16.64,0.23 z"
         fill="#e0e0e0"
         id="path152" />
      <rect
         x="476.73999"
         y="246.03"
         width="5.6300001"
         height="11.88"
         fill="#fafafa"
         id="rect168" />
      <path
         d="m 496.88,262.57 c 0,0.13 -7.45,0.23 -16.63,0.23 -9.18,0 -16.65,-0.1 -16.65,-0.23 0,-0.13 7.45,-0.22 16.65,-0.22 9.2,0 16.63,0.1 16.63,0.22 z"
         fill="#e0e0e0"
         id="path170" />
      <rect
         x="476.73999"
         y="269.98001"
         width="5.6300001"
         height="11.88"
         fill="#fafafa"
         id="rect172" />
      <path
         d="m 496.88,286.52 c 0,0.12 -7.45,0.22 -16.63,0.22 -9.18,0 -16.65,-0.1 -16.65,-0.22 0,-0.12 7.45,-0.23 16.65,-0.23 9.2,0 16.63,0.1 16.63,0.23 z"
         fill="#e0e0e0"
         id="path174" />
      <polygon
         points="445.72,254.93 389.07,275.02 448.05,261.2 "
         fill="#fafafa"
         id="polygon342" />
      <polygon
         points="391.19,179.9 390.26,210.98 363.74,211.32 364,178.07 "
         fill="#a25635"
         id="polygon386" />
      <path
         d="m 383.76,183.31 c -10.8,0 -19.57,12.51 -19.69,28 h -0.33 l 0.26,-33.25 27.18,1.83 -0.16,5.4 a 14.54,14.54 0 0 0 -7.26,-1.98 z"
         fill="#8f462b"
         id="path388" />
      <path
         d="m 374.32,178.77 7.39,0.49 c 0,5.81 -0.28,24.91 -0.38,31.84 l -10.19,0.12 z"
         fill="#eebe7a"
         id="path390" />
      <path
         d="m 350.82,209.74 57,1.49 -1,38.28 c -8.25,-36.51 -56,-39.77 -56,-39.77 z"
         fill="#d29957"
         id="path400" />
      <path
         d="m 373.42,187.87 0.9,-9.1 7.39,0.49 c 0,1 0,2.4 0,4.06 -2.66,0.21 -5.53,1.82 -8.29,4.55 z"
         fill="#e1ab63"
         id="path436" />
      <polygon
         points="390.34,167.66 389.42,198.74 362.9,199.08 363.16,165.83 "
         fill="#a25635"
         id="polygon454" />
      <path
         d="m 382.92,171.07 c -10.81,0 -19.58,12.51 -19.69,28 h -0.33 l 0.26,-33.25 27.18,1.83 -0.16,5.4 a 14.54,14.54 0 0 0 -7.26,-1.98 z"
         fill="#8f462b"
         id="path456" />
      <path
         d="m 373.47,166.53 7.39,0.5 c 0,5.8 -0.27,24.9 -0.37,31.83 L 370.3,199 Z"
         fill="#eebe7a"
         id="path458" />
      <path
         d="m 350,197.5 57,1.5 -1,38.28 C 397.73,200.74 350,197.5 350,197.5 Z"
         fill="#d29957"
         id="path468" />
      <path
         d="m 372.58,175.63 0.89,-9.1 7.39,0.5 c 0,1 0,2.39 0,4.05 -2.65,0.21 -5.52,1.82 -8.28,4.55 z"
         fill="#e1ab63"
         id="path504" />
      <polygon
         points="422.44,270.32 423.63,191.36 511.63,194.56 514.4,270.32 "
         fill="#eebf85"
         id="polygon576" />
      <polygon
         points="425.21,270.32 424.26,191.36 354.22,194.56 352.01,270.32 "
         fill="#d49e67"
         id="polygon578" />
      <polygon
         points="453.63,179.27 452.89,188.28 439.38,187.35 440.27,178.53 "
         fill="#fce8cf"
         id="polygon580" />
      <polygon
         points="446.22,171.05 445.92,175.86 440.37,175.36 440.74,170.65 "
         fill="#fce8cf"
         id="polygon582" />
      <path
         d="m 507.91,205.65 c 0,-3.58 -2.34,-6.48 -5.15,-6.48 -2.81,0 -5.05,2.9 -5,6.48 0.05,3.58 2.35,6.48 5.15,6.48 2.8,0 5.09,-2.9 5,-6.48 z m -5,5 c -2.18,0 -4,-2.25 -4,-5 0,-2.75 1.71,-5 3.89,-5 2.18,0 4,2.25 4,5 0,2.75 -1.73,5.03 -3.91,5.03 z"
         fill="#e4825f"
         id="path584" />
      <path
         d="m 505.68,205.65 c 0,-2 -1.32,-3.62 -2.89,-3.62 -1.57,0 -2.82,1.62 -2.8,3.62 0.02,2 1.31,3.63 2.88,3.63 1.57,0 2.83,-1.63 2.81,-3.63 z"
         fill="#e4825f"
         id="path586" />
      <polygon
         points="491.01,252.82 491.01,265.35 508.15,264.57 508.15,254.48 "
         fill="#fce8cf"
         id="polygon592" />
      <polygon
         points="388.13,214.63 387.22,245.04 361.27,245.37 361.52,212.84 "
         fill="#a25635"
         id="polygon602" />
      <path
         d="m 380.86,218 c -10.57,0 -19.16,12.25 -19.27,27.41 h -0.32 l 0.26,-32.53 26.6,1.79 -0.16,5.28 A 14.31,14.31 0 0 0 380.86,218 Z"
         fill="#8f462b"
         id="path604" />
      <path
         d="m 371.62,213.52 7.23,0.48 c 0,5.68 -0.27,24.38 -0.37,31.15 l -10,0.13 z"
         fill="#eebe7a"
         id="path606" />
      <path
         d="m 348.62,243.83 55.78,1.46 -1,37.46 C 395.36,247 348.62,243.83 348.62,243.83 Z"
         fill="#d29957"
         id="path616" />
      <path
         d="m 370.74,222.43 0.88,-8.91 7.23,0.48 c 0,1 0,2.35 0,4 -2.6,0.18 -5.41,1.75 -8.11,4.43 z"
         fill="#e1ab63"
         id="path676" />
      <path
         d="m 476.71,201.12 c -1.17,-0.19 -15.33,-0.19 -15.33,-0.19 l 0.59,29.22 h 25.21 c 0,0 -9.31,-28.83 -10.47,-29.03 z"
         fill="#e5b27e"
         id="path678" />
      <polygon
         points="418.71,303.12 419.88,225.84 506,228.97 508.71,303.12 "
         fill="#eebf85"
         id="polygon684" />
      <polygon
         points="421.43,303.12 420.5,225.84 351.95,228.97 349.79,303.12 "
         fill="#d49e67"
         id="polygon686" />
      <polygon
         inkscape:label=""
         points="433.84,148.16 433.45,231.07 356.84,230.15 354.19,149.21 "
         fill="#f3c68e"
         id="dd" />
      <polygon
         points="433.84,148.16 431.77,231.07 469.53,228.71 467.72,149.21 "
         fill="#ffdba7"
         id="polygon690" />
      <polygon
         points="449.24,214.01 448.52,222.83 435.29,221.91 436.17,213.28 "
         fill="#fce8cf"
         id="polygon692" />
      <polygon
         points="441.99,205.96 441.69,210.67 436.26,210.18 436.62,205.57 "
         fill="#fce8cf"
         id="polygon694" />
      <polygon
         transform="translate(-0.1176534,-0.94111943)"
         points="473.97,303.89 471.32,222.95 550.97,221.9 550.58,304.8 "
         fill="#f3c68e"
         id="polygon696" />
      <polygon
         transform="translate(-0.3035811,-1.0971476)"
         points="584.85,222.95 550.97,221.9 548.9,304.8 586.66,302.45 "
         fill="#ffdba7"
         id="polygon698" />
      <polygon
         points="566.37,287.74 565.65,296.56 552.42,295.65 553.3,287.02 "
         fill="#fce8cf"
         id="polygon700" />
      <polygon
         points="559.12,279.7 558.82,284.4 553.39,283.92 553.75,279.31 "
         fill="#fce8cf"
         id="polygon702" />
      <path
         d="m 502.37,239.83 c 0,-3.51 -2.3,-6.35 -5.05,-6.35 -2.75,0 -4.94,2.84 -4.9,6.35 0.04,3.51 2.3,6.34 5,6.34 2.7,0 4.98,-2.84 4.95,-6.34 z m -4.92,4.92 c -2.14,0 -3.89,-2.2 -3.92,-4.92 -0.03,-2.72 1.68,-4.93 3.81,-4.93 2.13,0 3.88,2.21 3.91,4.93 0.03,2.72 -1.67,4.92 -3.8,4.92 z"
         fill="#e4825f"
         id="path704" />
      <path
         d="m 500.17,239.83 c 0,-2 -1.28,-3.55 -2.82,-3.55 -1.54,0 -2.76,1.59 -2.74,3.55 0.02,1.96 1.29,3.54 2.82,3.54 1.53,0 2.77,-1.58 2.74,-3.54 z"
         fill="#e4825f"
         id="path706" />
      <polygon
         points="485.82,285.99 485.82,298.25 502.59,297.49 502.59,287.61 "
         fill="#fce8cf"
         id="polygon712" />
    </g>
  </g>
</svg>
