<?xml version="1.0" encoding="UTF-8" standalone="no"?>
<svg
   xmlns:dc="http://purl.org/dc/elements/1.1/"
   xmlns:cc="http://creativecommons.org/ns#"
   xmlns:rdf="http://www.w3.org/1999/02/22-rdf-syntax-ns#"
   xmlns:svg="http://www.w3.org/2000/svg"
   xmlns="http://www.w3.org/2000/svg"
   xmlns:sodipodi="http://sodipodi.sourceforge.net/DTD/sodipodi-0.dtd"
   xmlns:inkscape="http://www.inkscape.org/namespaces/inkscape"
   inkscape:version="1.0 (4035a4fb49, 2020-05-01)"
   sodipodi:docname="van2.svg"
   version="1.1"
   viewBox="0 0 698.16 424.01"
   data-name="Layer 1"
   id="fe21feea-ef93-4569-b3ee-3bb4b224f687">
  <metadata
     id="metadata719">
    <rdf:RDF>
      <cc:Work
         rdf:about="">
        <dc:format>image/svg+xml</dc:format>
        <dc:type
           rdf:resource="http://purl.org/dc/dcmitype/StillImage" />
        <dc:title />
      </cc:Work>
    </rdf:RDF>
  </metadata>
  <defs
     id="defs717" />
  <sodipodi:namedview
     showguides="false"
     inkscape:current-layer="parcels"
     inkscape:window-maximized="1"
     inkscape:window-y="-11"
     inkscape:window-x="2293"
     inkscape:cy="122.83481"
     inkscape:cx="399.07584"
     inkscape:zoom="3.005042"
     showgrid="false"
     id="namedview715"
     inkscape:window-height="2054"
     inkscape:window-width="3840"
     inkscape:pageshadow="2"
     inkscape:pageopacity="0"
     guidetolerance="10"
     gridtolerance="10"
     objecttolerance="10"
     borderopacity="1"
     bordercolor="#666666"
     pagecolor="#ffffff"
     inkscape:document-rotation="0" />
  <path
     id="path2"
     fill="#f5f5f5"
     d="M635.37,23.47c.58-4.24-5.4-7.73-9.9-8.09-2.14-.18-4.37.15-6.4-.56-4.41-1.53-6.16-7.22-10.46-9-3.21-1.35-6.91-.15-10,1.42s-6.19,3.54-9.67,3.76c-3,.19-6.31-.93-8.95.55-2,1.1-3,3.37-4.83,4.71s-4.1,1.59-6.3,1.71-4.49.15-6.5,1.07-3.68,3-3.26,5.21Z" />
  <rect
     id="rect4"
     fill="#f5f5f5"
     height="267.86"
     width="84.52"
     y="98.99"
     x="69.16" />
  <rect
     id="rect6"
     fill="#ebebeb"
     height="267.12"
     width="42.26"
     y="98.99"
     x="111.41" />
  <rect
     id="rect8"
     fill="#f5f5f5"
     height="26.3"
     width="29.85"
     y="72.7"
     x="78.81" />
  <rect
     id="rect10"
     fill="#ebebeb"
     height="26.3"
     width="7.11"
     y="72.7"
     x="101.54" />
  <polyline
     id="polyline12"
     fill="#e0e0e0"
     points="62.11 98.99 62.11 97.46 156.15 97.46 156.15 98.99" />
  <rect
     id="rect14"
     fill="#fafafa"
     height="15.08"
     width="7.15"
     y="110.46"
     x="85.84" />
  <path
     id="path16"
     fill="#e0e0e0"
     d="M111.41,131.47c0,.16-9.46.28-21.12.28s-21.13-.12-21.13-.28,9.45-.29,21.13-.29S111.41,131.31,111.41,131.47Z" />
  <rect
     id="rect18"
     fill="#e0e0e0"
     height="15.08"
     width="7.15"
     y="110.46"
     x="128.46" />
  <path
     id="path20"
     fill="#e0e0e0"
     d="M154,131.47c0,.16-9.46.28-21.13.28s-21.13-.12-21.13-.28,9.46-.29,21.13-.29S154,131.31,154,131.47Z" />
  <rect
     id="rect22"
     fill="#e0e0e0"
     height="15.09"
     width="7.15"
     y="140.41"
     x="128.46" />
  <path
     id="path24"
     fill="#e0e0e0"
     d="M154,161.42c0,.15-9.46.28-21.13.28s-21.13-.13-21.13-.28,9.46-.29,21.13-.29S154,161.26,154,161.42Z" />
  <rect
     id="rect26"
     fill="#e0e0e0"
     height="15.08"
     width="7.15"
     y="171.26"
     x="128.46" />
  <path
     id="path28"
     fill="#e0e0e0"
     d="M154,192.27c0,.16-9.46.29-21.13.29s-21.13-.13-21.13-.29,9.46-.29,21.13-.29S154,192.11,154,192.27Z" />
  <rect
     id="rect30"
     fill="#e0e0e0"
     height="15.08"
     width="7.15"
     y="202.12"
     x="128.46" />
  <path
     id="path32"
     fill="#e0e0e0"
     d="M154,223.12c0,.16-9.46.29-21.13.29s-21.13-.13-21.13-.29,9.46-.29,21.13-.29S154,223,154,223.12Z" />
  <rect
     id="rect34"
     fill="#e0e0e0"
     height="15.08"
     width="7.15"
     y="232.09"
     x="128.46" />
  <path
     id="path36"
     fill="#e0e0e0"
     d="M154,253.09c0,.16-9.46.29-21.13.29s-21.13-.13-21.13-.29,9.46-.29,21.13-.29S154,252.93,154,253.09Z" />
  <rect
     id="rect38"
     fill="#e0e0e0"
     height="15.08"
     width="7.15"
     y="262.18"
     x="128.46" />
  <rect
     id="rect40"
     fill="#e0e0e0"
     height="15.08"
     width="7.15"
     y="292.67"
     x="128.46" />
  <path
     id="path42"
     fill="#e0e0e0"
     d="M154,283.18c0,.16-9.46.29-21.13.29s-21.13-.13-21.13-.29,9.46-.28,21.13-.28S154,283,154,283.18Z" />
  <rect
     id="rect44"
     fill="#fafafa"
     height="15.08"
     width="7.15"
     y="140.87"
     x="85.84" />
  <path
     id="path46"
     fill="#e0e0e0"
     d="M111.41,161.87c0,.16-9.46.29-21.12.29s-21.13-.13-21.13-.29,9.45-.28,21.13-.28S111.41,161.71,111.41,161.87Z" />
  <rect
     id="rect48"
     fill="#fafafa"
     height="15.08"
     width="7.15"
     y="171.27"
     x="85.84" />
  <path
     id="path50"
     fill="#e0e0e0"
     d="M111.41,192.28c0,.16-9.46.29-21.12.29s-21.13-.13-21.13-.29,9.45-.29,21.13-.29S111.41,192.12,111.41,192.28Z" />
  <rect
     id="rect52"
     fill="#fafafa"
     height="15.08"
     width="7.15"
     y="201.68"
     x="85.84" />
  <path
     id="path54"
     fill="#e0e0e0"
     d="M111.41,222.69c0,.16-9.46.28-21.12.28s-21.13-.12-21.13-.28,9.45-.29,21.13-.29S111.41,222.53,111.41,222.69Z" />
  <rect
     id="rect56"
     fill="#fafafa"
     height="15.08"
     width="7.15"
     y="232.09"
     x="85.84" />
  <path
     id="path58"
     fill="#e0e0e0"
     d="M111.41,253.09c0,.16-9.46.29-21.12.29s-21.13-.13-21.13-.29,9.45-.29,21.13-.29S111.41,252.93,111.41,253.09Z" />
  <rect
     id="rect60"
     fill="#fafafa"
     height="15.08"
     width="7.15"
     y="262.49"
     x="85.84" />
  <path
     id="path62"
     fill="#e0e0e0"
     d="M111.41,283.5c0,.16-9.46.29-21.12.29s-21.13-.13-21.13-.29,9.45-.29,21.13-.29S111.41,283.34,111.41,283.5Z" />
  <rect
     id="rect64"
     fill="#fafafa"
     height="15.08"
     width="7.15"
     y="292.9"
     x="85.84" />
  <rect
     id="rect66"
     fill="#f5f5f5"
     height="386.1"
     width="121.83"
     y="37.91"
     x="365.34" />
  <rect
     id="rect68"
     fill="#ebebeb"
     height="385.04"
     width="60.91"
     y="37.91"
     x="426.26" />
  <rect
     id="rect70"
     fill="#f5f5f5"
     height="37.91"
     width="43.02"
     x="379.25" />
  <rect
     id="rect102"
     fill="#e0e0e0"
     height="21.74"
     width="10.31"
     y="317.08"
     x="450.84" />
  <rect
     id="rect126"
     fill="#fafafa"
     height="21.74"
     width="10.31"
     y="317.42"
     x="389.39" />
  <rect
     id="rect128"
     fill="#f5f5f5"
     height="210.94"
     width="66.56"
     y="213.05"
     x="463.6" />
  <rect
     id="rect130"
     fill="#ebebeb"
     height="210.36"
     width="33.28"
     y="213.05"
     x="496.88" />
  <path
     id="path156"
     fill="#e0e0e0"
     d="M530.45,310.81c0,.12-7.45.22-16.64.22s-16.64-.1-16.64-.22,7.45-.23,16.64-.23S530.45,310.68,530.45,310.81Z" />
  <rect
     id="rect158"
     fill="#e0e0e0"
     height="11.88"
     width="5.63"
     y="317.87"
     x="510.31" />
  <path
     id="path160"
     fill="#e0e0e0"
     d="M530.45,334.41c0,.13-7.45.23-16.64.23s-16.64-.1-16.64-.23,7.45-.23,16.64-.23S530.45,334.29,530.45,334.41Z" />
  <rect
     id="rect162"
     fill="#e0e0e0"
     height="11.88"
     width="5.63"
     y="341.57"
     x="510.31" />
  <rect
     id="rect164"
     fill="#e0e0e0"
     height="11.88"
     width="5.63"
     y="365.57"
     x="510.31" />
  <path
     id="path166"
     fill="#e0e0e0"
     d="M530.45,358.11c0,.12-7.45.23-16.64.23s-16.64-.11-16.64-.23,7.45-.23,16.64-.23S530.45,358,530.45,358.11Z" />
  <path
     id="path178"
     fill="#e0e0e0"
     d="M496.88,310.46c0,.13-7.45.23-16.63.23s-16.65-.1-16.65-.23,7.45-.22,16.65-.22S496.88,310.34,496.88,310.46Z" />
  <rect
     id="rect180"
     fill="#fafafa"
     height="11.88"
     width="5.63"
     y="317.87"
     x="476.74" />
  <path
     id="path182"
     fill="#e0e0e0"
     d="M496.88,334.41c0,.13-7.45.23-16.63.23s-16.65-.1-16.65-.23,7.45-.23,16.65-.23S496.88,334.29,496.88,334.41Z" />
  <rect
     id="rect184"
     fill="#fafafa"
     height="11.88"
     width="5.63"
     y="341.81"
     x="476.74" />
  <path
     id="path186"
     fill="#e0e0e0"
     d="M496.88,358.36c0,.12-7.45.22-16.63.22s-16.65-.1-16.65-.22,7.45-.23,16.65-.23S496.88,358.23,496.88,358.36Z" />
  <rect
     id="rect188"
     fill="#fafafa"
     height="11.88"
     width="5.63"
     y="365.76"
     x="476.74" />
  <rect
     id="rect190"
     fill="#e0e0e0"
     height="136"
     width="71.66"
     y="288"
     x="124.71" />
  <rect
     id="rect192"
     fill="#ebebeb"
     height="136"
     width="33.6"
     y="288"
     x="162.77" />
  <rect
     id="rect194"
     fill="#f5f5f5"
     height="15.65"
     width="6.44"
     y="300.79"
     x="139.73" />
  <rect
     id="rect196"
     fill="#f5f5f5"
     height="15.65"
     width="6.44"
     y="362.06"
     x="139.73" />
  <path
     id="path198"
     fill="#f5f5f5"
     d="M162.77,322.59c0,.14-8.52.25-19,.25s-19-.11-19-.25,8.52-.24,19-.24S162.77,322.46,162.77,322.59Z" />
  <rect
     id="rect200"
     fill="#f5f5f5"
     height="15.65"
     width="6.44"
     y="331.66"
     x="139.73" />
  <path
     id="path202"
     fill="#f5f5f5"
     d="M162.77,353.46c0,.13-8.52.24-19,.24s-19-.11-19-.24,8.52-.25,19-.25S162.77,353.32,162.77,353.46Z" />
  <rect
     id="rect204"
     fill="#e0e0e0"
     height="15.65"
     width="6.44"
     y="300.79"
     x="169.9" />
  <rect
     id="rect206"
     fill="#e0e0e0"
     height="15.65"
     width="6.44"
     y="300.79"
     x="183.88" />
  <rect
     id="rect208"
     fill="#e0e0e0"
     height="15.65"
     width="6.44"
     y="330.5"
     x="169.9" />
  <rect
     id="rect210"
     fill="#e0e0e0"
     height="15.65"
     width="6.44"
     y="330.5"
     x="183.88" />
  <rect
     id="rect212"
     fill="#e0e0e0"
     height="15.65"
     width="6.44"
     y="360.2"
     x="169.9" />
  <rect
     id="rect214"
     fill="#e0e0e0"
     height="15.65"
     width="6.44"
     y="360.2"
     x="183.88" />
  <rect
     id="rect216"
     fill="#e0e0e0"
     height="3.41"
     width="82.43"
     y="284.71"
     x="119.32" />
  <path
     id="path218"
     fill="#ebebeb"
     d="M196.87,288.44c0,.13-16,.24-35.77.24s-35.78-.11-35.78-.24,16-.25,35.78-.25S196.87,288.3,196.87,288.44Z" />
  <polygon
     id="polygon220"
     fill="#ebebeb"
     points="125.53 423.9 10.12 423.9 9.62 241.51 125.03 241.51 125.53 423.9" />
  <rect
     id="rect222"
     fill="#e0e0e0"
     height="182.39"
     width="57.7"
     y="241.51"
     x="67.32" />
  <rect
     id="rect224"
     fill="#ebebeb"
     height="35.91"
     width="40.75"
     y="205.6"
     x="22.8" />
  <rect
     id="rect226"
     fill="#e0e0e0"
     height="35.91"
     width="9.71"
     y="205.6"
     x="53.84" />
  <rect
     id="rect228"
     fill="#e0e0e0"
     height="2.09"
     width="128.4"
     y="239.41" />
  <rect
     id="rect230"
     fill="#fff"
     height="20.6"
     width="9.77"
     y="257.17"
     x="32.4" />
  <path
     id="path232"
     fill="#e0e0e0"
     d="M67.32,285.85c0,.22-12.92.39-28.85.39s-28.85-.17-28.85-.39,12.91-.39,28.85-.39S67.32,285.63,67.32,285.85Z" />
  <rect
     id="rect234"
     fill="#f5f5f5"
     height="20.6"
     width="9.77"
     y="257.17"
     x="90.6" />
  <path
     id="path236"
     fill="#ebebeb"
     d="M125.53,285.85c0,.22-12.92.39-28.85.39s-28.86-.17-28.86-.39,12.92-.39,28.86-.39S125.53,285.63,125.53,285.85Z" />
  <rect
     id="rect238"
     fill="#f5f5f5"
     height="20.6"
     width="9.77"
     y="298.06"
     x="90.6" />
  <path
     id="path240"
     fill="#ebebeb"
     d="M125.53,326.75c0,.21-12.92.39-28.85.39s-28.86-.18-28.86-.39,12.92-.4,28.86-.4S125.53,326.53,125.53,326.75Z" />
  <rect
     id="rect242"
     fill="#f5f5f5"
     height="20.6"
     width="9.77"
     y="340.19"
     x="90.6" />
  <path
     id="path244"
     fill="#ebebeb"
     d="M125.53,368.88c0,.21-12.92.39-28.85.39s-28.86-.18-28.86-.39,12.92-.4,28.86-.4S125.53,368.66,125.53,368.88Z" />
  <rect
     id="rect246"
     fill="#f5f5f5"
     height="20.6"
     width="9.77"
     y="382.32"
     x="90.6" />
  <path
     id="path248"
     fill="#ebebeb"
     d="M125.53,411c0,.21-12.92.39-28.85.39s-28.86-.18-28.86-.39,12.92-.4,28.86-.4S125.53,410.79,125.53,411Z" />
  <rect
     id="rect250"
     fill="#fff"
     height="20.6"
     width="9.77"
     y="298.69"
     x="32.4" />
  <path
     id="path252"
     fill="#e0e0e0"
     d="M67.32,327.37c0,.22-12.92.39-28.85.39s-28.85-.17-28.85-.39S22.53,327,38.47,327,67.32,327.15,67.32,327.37Z" />
  <rect
     id="rect254"
     fill="#fff"
     height="20.6"
     width="9.77"
     y="340.21"
     x="32.4" />
  <path
     id="path256"
     fill="#e0e0e0"
     d="M67.32,368.89c0,.22-12.92.39-28.85.39s-28.85-.17-28.85-.39,12.91-.39,28.85-.39S67.32,368.67,67.32,368.89Z" />
  <rect
     id="rect258"
     fill="#fff"
     height="20.6"
     width="9.77"
     y="381.73"
     x="32.4" />
  <path
     id="path260"
     fill="#e0e0e0"
     d="M67.32,410.41c0,.22-12.92.39-28.85.39s-28.85-.17-28.85-.39S22.53,410,38.47,410,67.32,410.19,67.32,410.41Z" />
  <path
     id="path262"
     fill="#f5f5f5"
     d="M672.58,141.47c.84-6.06-7.72-11-14.14-11.56-3.07-.25-6.25.22-9.16-.79-6.29-2.19-8.8-10.32-14.94-12.91-4.59-1.94-9.87-.21-14.32,2s-8.85,5.05-13.82,5.37c-4.32.28-9-1.32-12.8.79-2.82,1.57-4.29,4.82-6.89,6.74s-5.86,2.27-9,2.44-6.42.2-9.29,1.52-5.25,4.35-4.66,7.45Z" />
  <rect
     id="rect264"
     fill="#ebebeb"
     height="66.739998"
     width="92.839996"
     y="357.25"
     x="605.32001" />
  <path
     id="path266"
     fill="#f5f5f5"
     d="M630.22,357.25c.13,0,0,14.09,0,14.09h-6.87V357.25Z" />
  <rect
     id="rect268"
     fill="#e0e0e0"
     transform="translate(1349.89 781.25) rotate(180)"
     height="66.74"
     width="46.42"
     y="357.25"
     x="651.74" />
  <rect
     id="rect270"
     fill="#fff"
     height="8.79"
     width="12.43"
     y="410.93"
     x="608.15" />
  <rect
     id="rect272"
     fill="#fff"
     height="8.79"
     width="6.21"
     y="410.93"
     x="622.87" />
  <rect
     id="rect274"
     fill="#ebebeb"
     height="43.46"
     width="60.45"
     y="313.79"
     x="628.89" />
  <rect
     id="rect278"
     fill="#e0e0e0"
     transform="translate(1348.45 671.04) rotate(180)"
     height="43.46"
     width="30.22"
     y="313.79"
     x="659.11" />
  <rect
     id="rect280"
     fill="#fff"
     height="5.73"
     width="8.09"
     y="348.74"
     x="630.73" />
  <rect
     id="rect282"
     fill="#fff"
     height="5.73"
     width="4.05"
     y="348.74"
     x="640.32" />
  <path
     id="path284"
     fill="#ebebeb"
     d="M71.44,25c.47-3.43-4.37-6.26-8-6.55-1.74-.14-3.54.12-5.18-.45-3.57-1.24-5-5.84-8.47-7.31-2.59-1.09-5.59-.12-8.11,1.15s-5,2.86-7.82,3c-2.45.16-5.11-.75-7.25.45-1.6.89-2.43,2.73-3.9,3.81a9.29,9.29,0,0,1-5.11,1.39,14.14,14.14,0,0,0-5.26.86c-1.62.74-3,2.46-2.63,4.22Z" />
  <path
     id="path286"
     fill="#ebebeb"
     d="M689.45,94.65c.46-3.35-4.27-6.1-7.82-6.39-1.69-.13-3.45.13-5-.43-3.48-1.22-4.86-5.7-8.25-7.13-2.54-1.07-5.46-.12-7.92,1.11s-4.88,2.8-7.63,3c-2.39.16-5-.73-7.07.44-1.56.87-2.37,2.66-3.81,3.72a9.06,9.06,0,0,1-5,1.35,13.79,13.79,0,0,0-5.13.84c-1.59.72-2.9,2.4-2.57,4.11Z" />
  <path
     id="path288"
     fill="#f5f5f5"
     d="M177.75,46.23c.86-6.27-8-11.43-14.63-12-3.17-.26-6.46.22-9.47-.82-6.5-2.27-9.1-10.68-15.45-13.36-4.75-2-10.22-.22-14.82,2.1s-9.15,5.23-14.29,5.56c-4.47.29-9.33-1.37-13.24.81-2.92,1.63-4.44,5-7.13,7s-6.06,2.35-9.32,2.53-6.64.21-9.61,1.57-5.43,4.5-4.81,7.71Z" />
  <rect
     id="rect290"
     fill="#e8505b"
     height="44.38"
     width="444.07"
     y="292.01"
     x="82.52" />
  <rect
     id="rect292"
     fill="#dbdbdb"
     height="44.38"
     width="444.07"
     y="292.01"
     x="82.52" />
  <rect
     id="rect294"
     fill="#455a64"
     height="41.1"
     width="131.08"
     y="342"
     x="299.31" />
  <polygon
     id="polygon296"
     fill="#263238"
     points="207.7 323.4 207.7 377.73 252.46 377.73 270.4 351.73 597.21 351.73 597.21 323.4 207.7 323.4" />
  <path
     id="path298"
     fill="#dbdbdb"
     d="M204.91,151.36a3.33,3.33,0,0,0-3.46-3.15c-17.68.73-101.67,4.58-118.94,12.88-13.21,6.36-27.7,30.1-37.91,46.09-7.32,11.46-23.49,36.9-26.76,49.91-2.77,11-4.44,33.88-4.24,45.24l4.61,60.05H94.33L102,342.54a33.48,33.48,0,0,1,31.26-21.47h75.63V221.4Z" />
  <path
     id="path300"
     fill="#455a64"
     d="M73.49,167.74c-10.47,10-21,27-28.89,39.44-6.77,10.61-21.14,33.2-25.83,46.82-.08.25-.15.49-.24.74,2.32-.64,5.89-2,7-4.15,1.66-3.33,3.81-14.74,30.26-57.81C63.84,179.66,71.68,172,73.49,167.74Z" />
  <path
     id="path302"
     fill="#263238"
     d="M165.82,163.29c-19.46,1.11-61.65,4-75.13,8.58-17.56,6-37.27,52.49-38.2,54.53l-13.29,34a1.48,1.48,0,0,0,1.41,1.95H74.94a11,11,0,0,0,3.8-.68L169,228a10.42,10.42,0,0,0,6.79-9.78V172.76A9.47,9.47,0,0,0,165.82,163.29Z" />
  <path
     id="path304"
     fill="#455a64"
     d="M43,259s12.74-28.55,17-37.88c6.46-14.12,21.55-43,31.74-46.1,9.37-2.81,36.31-6.24,74.24-8.41h.36a6.15,6.15,0,0,1,6.13,6.15v46.51a5.64,5.64,0,0,1-3.66,5.26l-66.71,8.23A18.55,18.55,0,0,0,88.89,241L77.33,258.63a6.21,6.21,0,0,1-2.13.38Z" />
  <path
     id="path306"
     fill="#263238"
     d="M99.71,233.28,77,258.54l12.55-83.87,3.14-1.08-6.17,62.13a1.82,1.82,0,0,0,2.5,1.87Z" />
  <path
     id="path308"
     fill="#ebebeb"
     d="M12.11,308.15c-.08-1.09.29-2,.84-2L25.11,305c1-.09,1.94,1.79,2.06,4l.54,9.33c.09,1.5-.36,2.77-1,2.88l-12.4,2.14c-.56.1-1.09-.73-1.17-1.83Z" />
  <rect
     id="rect310"
     fill="#263238"
     height="35.13"
     width="87.62"
     y="351.74"
     x="12.1" />
  <circle
     id="circle312"
     fill="#263238"
     transform="translate(-14.32 6.29) rotate(-2.2)"
     r="47.94"
     cy="375.65"
     cx="156.39" />
  <path
     id="path314"
     fill="#263238"
     d="M108.47,374.83c0,.05,0,.09,0,.13a47.93,47.93,0,1,0,95.86,1.38s0-.08,0-.12Z" />
  <path
     id="path316"
     fill="#fafafa"
     d="M122.74,375.16A33.65,33.65,0,1,0,156.87,342,33.65,33.65,0,0,0,122.74,375.16Z" />
  <path
     id="path318"
     fill="#e0e0e0"
     d="M156.87,342a33.65,33.65,0,0,0-34.13,33.16l67.3,1A33.65,33.65,0,0,0,156.87,342Z" />
  <path
     id="path320"
     fill="#263238"
     d="M135.89,375.35a20.5,20.5,0,1,0,20.79-20.2A20.51,20.51,0,0,0,135.89,375.35Z" />
  <rect
     id="rect322"
     fill="#263238"
     rx="7.98"
     height="47.69"
     width="19.87"
     y="193.74"
     x="51.52" />
  <rect
     id="rect324"
     fill="#263238"
     height="15.61"
     width="13.48"
     y="266.37"
     x="39.77" />
  <path
     id="path326"
     fill="#263238"
     d="M94,164.64l1.2-.16,3.51-.41,13.59-1.57L163,156.73c2.71-.29,5.46-.65,8.31-.9a15.51,15.51,0,0,1,4.34.28,16.73,16.73,0,0,1,4.17,1.58,15.49,15.49,0,0,1,6.31,6.56,14.62,14.62,0,0,1,1.45,4.51,17.4,17.4,0,0,1,.21,2.4v2.41c0,12.91,0,26.77,0,41.46,0,29.38,0,62.06,0,97v.26H135.16a57.12,57.12,0,0,0-9,.43,35.06,35.06,0,0,0-8.67,2.42,35.61,35.61,0,0,0-19,19.65,27.31,27.31,0,0,0-1.1,3.27,27.93,27.93,0,0,0-.76,3.35l-.26,1.7-.13.85,0,.85-.09,1.71,0,.86v.1c.23-.22-.31.34-.27.28H29.08v-.25c0-15.07,0-29.6,0-43.48q0-10.41,0-20.33,0-4.95,0-9.78c0-1.61,0-3.2,0-4.79s.15-3.17.34-4.73a47.45,47.45,0,0,1,5.66-17.22l8-15,14.16-26.56L68.77,184l2.43-4.55c.4-.72.74-1.45,1.17-2.13a19.6,19.6,0,0,1,1.34-1.91,28.22,28.22,0,0,1,6.07-5.64,30.47,30.47,0,0,1,10.37-4.51,26.3,26.3,0,0,1,3.86-.63l-1,.15c-.64.1-1.61.27-2.86.56a30.72,30.72,0,0,0-10.3,4.56,28.43,28.43,0,0,0-6,5.63,19.38,19.38,0,0,0-1.33,1.9c-.41.67-.76,1.4-1.15,2.13L69,184.13,57.53,205.72l-14.1,26.59q-3.82,7.23-8,15a47.1,47.1,0,0,0-5.6,17.09c-.18,1.55-.29,3.11-.33,4.69s0,3.18,0,4.78q0,4.83,0,9.78,0,9.92,0,20.33c0,13.88,0,28.41,0,43.48l-.24-.24H95.85c.07-.05-.48.48-.25.24v-.11l0-.86.09-1.74.05-.86.12-.86.27-1.73a28.76,28.76,0,0,1,.77-3.4,27.51,27.51,0,0,1,1.11-3.32,35.48,35.48,0,0,1,28.05-22.4,57.27,57.27,0,0,1,9-.43h52.42l-.25.25c0-34.9,0-67.58,0-97,0-14.69,0-28.55,0-41.46a28.62,28.62,0,0,0-.21-4.75,14.3,14.3,0,0,0-1.4-4.41,15.15,15.15,0,0,0-6.15-6.4,16.11,16.11,0,0,0-4.07-1.55,15.23,15.23,0,0,0-4.25-.29c-2.82.24-5.59.6-8.29.89l-50.69,5.61-13.6,1.49-3.52.37Z" />
  <path
     id="path328"
     fill="#263238"
     d="M171.87,275.16s.27,0,.78-.12a5.33,5.33,0,0,0,2.06-.82,5.26,5.26,0,0,0,2.09-2.72,6,6,0,0,0,.27-2.16,5.39,5.39,0,0,0-.61-2.32,5.18,5.18,0,0,0-4.51-2.75l-6.6,0-15.12,0a5.11,5.11,0,0,0-5.08,4.55,5.77,5.77,0,0,0,.62,3.45,5.27,5.27,0,0,0,2.51,2.23,7.91,7.91,0,0,0,3.25.39l3.21,0,5.75,0,8.33.08,2.26.05a3.71,3.71,0,0,1,.79.05,6.93,6.93,0,0,1-.79,0l-2.26.05-8.33.08-5.75,0h-3.21c-.55,0-1.09,0-1.69,0a5.87,5.87,0,0,1-1.74-.4,5.62,5.62,0,0,1-2.75-2.42,6.21,6.21,0,0,1-.7-3.75,5.63,5.63,0,0,1,5.58-5l15.12,0,6.61,0a5.56,5.56,0,0,1,4.82,3,5.67,5.67,0,0,1,.61,2.49,6.11,6.11,0,0,1-.32,2.25,5.45,5.45,0,0,1-2.26,2.8,5.15,5.15,0,0,1-2.15.75A3.37,3.37,0,0,1,171.87,275.16Z" />
  <path
     id="path330"
     fill="#fff"
     d="M170,262.6a73.3,73.3,0,0,1-8.58.25,73.2,73.2,0,0,1-8.57-.25,71.79,71.79,0,0,1,8.57-.26A71.89,71.89,0,0,1,170,262.6Z" />
  <path
     id="path332"
     fill="#263238"
     d="M103.7,387.16l-8-.58c2.09-28.65,5.15-45.79,9.36-52.4,8.08-12.7,16.11-15,25-16.51,8.28-1.41,16.64-1.07,24.72-.75l2,.08c16.68.65,51.62.07,52,.07l.14,8c-.35,0-35.52.59-52.42-.07l-2-.08c-7.67-.3-15.6-.63-23.05.65-8,1.36-13.25,2.9-19.62,12.92C109.9,341.51,106.28,351.87,103.7,387.16Z" />
  <rect
     id="rect334"
     fill="#455a64"
     height="262.32"
     width="393.98"
     y="58.76"
     x="213.04" />
  <path
     id="path336"
     fill="#263238"
     d="M602.29,317.93c0-1.69-.08-97.9-.2-251.2l.2.2-385,.06h0l.26-.26c0,89.29,0,174.28,0,251.2l-.23-.24,385,.24-385,.24H217v-.24c0-76.92,0-161.91,0-251.2v-.26h.29l385,0h.21v.21C602.38,220,602.3,316.25,602.29,317.93Z" />
  <path
     id="path346"
     fill="#fafafa"
     d="M157,185s-.11.12-.36.31l-1.1.8c-1,.68-2.37,1.64-4.12,2.83-3.49,2.36-8.35,5.58-13.77,9s-10.37,6.54-14,8.73c-1.81,1.09-3.27,2-4.29,2.56l-1.19.67a2.22,2.22,0,0,1-.43.2s.12-.12.38-.29l1.13-.76,4.2-2.69,13.89-8.86,13.85-8.92,4.2-2.69,1.16-.72A2.73,2.73,0,0,1,157,185Z" />
  <path
     id="path348"
     fill="#fafafa"
     d="M139.94,189.54s-.12.12-.36.31-.67.48-1.11.79c-1,.68-2.37,1.65-4.11,2.83-3.49,2.37-8.35,5.58-13.77,9.06s-10.37,6.54-14,8.73c-1.8,1.09-3.27,2-4.29,2.55l-1.18.67c-.27.15-.42.22-.43.2a2,2,0,0,1,.38-.29l1.13-.75,4.2-2.7,13.89-8.85c5.37-3.47,10.24-6.6,13.85-8.92l4.2-2.7,1.16-.71A1.91,1.91,0,0,1,139.94,189.54Z" />
  <path
     id="path350"
     fill="#fafafa"
     d="M55.75,218.65a3.49,3.49,0,0,1-.31-.88c-.16-.57-.38-1.41-.62-2.45a35.55,35.55,0,0,1-1.06-8.3,17.82,17.82,0,0,1,1.91-8.14,11.83,11.83,0,0,1,1.41-2.12c.39-.45.64-.67.67-.65A30.68,30.68,0,0,0,56,199.05a19.34,19.34,0,0,0-1.71,8,43.46,43.46,0,0,0,.9,8.22A26,26,0,0,1,55.75,218.65Z" />
  <path
     id="path352"
     fill="#fafafa"
     d="M15.06,289.55a4.74,4.74,0,0,1-.06-1.12c0-.72,0-1.76.07-3,.08-2.57.26-6.12.57-10s.68-7.44,1-10c.16-1.28.3-2.31.42-3a4,4,0,0,1,.23-1.09,5.3,5.3,0,0,1,0,1.12l-.25,3c-.23,2.68-.52,6.15-.85,10s-.53,7.31-.73,10c-.09,1.2-.16,2.21-.22,3A5,5,0,0,1,15.06,289.55Z" />
  <path
     id="path354"
     fill="#fafafa"
     d="M124.62,309c0,.11-1.92.39-4.92,1.35a39.38,39.38,0,0,0-5.1,2.07,42.68,42.68,0,0,0-5.76,3.5,41.07,41.07,0,0,0-5.06,4.45,37.58,37.58,0,0,0-3.51,4.25c-1.82,2.57-2.66,4.34-2.76,4.29a7.71,7.71,0,0,1,.56-1.26,15,15,0,0,1,.76-1.42c.33-.54.67-1.17,1.14-1.82a34.13,34.13,0,0,1,3.46-4.37,39.73,39.73,0,0,1,5.1-4.54,38.76,38.76,0,0,1,5.86-3.51,34.72,34.72,0,0,1,5.21-2c.75-.25,1.46-.39,2.07-.54a15.1,15.1,0,0,1,1.58-.3A7.27,7.27,0,0,1,124.62,309Z" />
  <circle
     id="circle356"
     fill="#263238"
     transform="translate(-14.57 20.66) rotate(-2.29)"
     r="47.94"
     cy="375.65"
     cx="510.49" />
  <path
     id="path358"
     fill="#263238"
     d="M462.57,374.83c0,.05,0,.09,0,.13a47.93,47.93,0,1,0,95.86,1.38s0-.08,0-.12Z" />
  <path
     id="path360"
     fill="#fafafa"
     d="M476.84,375.16A33.65,33.65,0,1,0,511,342,33.65,33.65,0,0,0,476.84,375.16Z" />
  <path
     id="path362"
     fill="#e0e0e0"
     d="M511,342a33.65,33.65,0,0,0-34.13,33.16l67.3,1A33.65,33.65,0,0,0,511,342Z" />
  <path
     id="path364"
     fill="#263238"
     d="M490,375.35a20.5,20.5,0,1,0,20.79-20.2A20.51,20.51,0,0,0,490,375.35Z" />
  <path
     id="path366"
     fill="#455a64"
     d="M447.47,388.78s-7.3-68,63.16-68c65,0,63.56,58.48,63,67.53h-10.2s5.2-57.64-52.75-57.64-52.9,58.81-52.9,58.81S453.45,389.27,447.47,388.78Z" />
  <rect
     x="233.6"
     y="80.23"
     width="353.58"
     height="222.77"
     fill="#263238"
     id="rect368" />
  <g
     transform="translate(-0.33277405,-0.33277405)"
     id="parcels">
    <g
       id="g2384">
      <polygon
         id="polygon370"
         fill="#e1ab63"
         points="342.23,231.43 338.14,124.97 314.79,126.55 311.36,230.1 " />
      <polygon
         id="polygon374"
         fill="#cf9652"
         points="337.75,232.18 337.75,124.97 387.62,129.21 383.86,232.18 " />
      <polygon
         id="polygon398"
         fill="#c68a4a"
         points="343.68,269.57 341.11,209.49 407.81,211.23 406.23,270.32 " />
      <polygon
         id="polygon414"
         fill="#b88248"
         points="378.52,242.9 407.04,211.21 407.81,211.23 407.76,213.01 378.52,244.06 341.16,210.6 341.11,209.49 342.2,209.52 " />
      <polygon
         id="polygon438"
         fill="#e1ab63"
         points="341.39,219.19 337.3,112.73 313.95,114.31 310.51,217.86 " />
      <polygon
         id="polygon442"
         fill="#cf9652"
         points="336.9,219.94 336.9,112.73 386.78,116.97 383.02,219.94 " />
      <path
         id="path450"
         fill="#c58f50"
         d="m 331.76,218.52 c 0,0 0,-58.34 -0.53,-59.33 -0.53,-0.99 -42.49,-5.16 -43.81,-4.82 -1.32,0.34 -2.11,65.81 -2.11,65.81 z" />
      <polygon
         id="polygon466"
         fill="#c68a4a"
         points="342.84,257.33 340.27,197.25 406.97,198.99 405.39,258.08 " />
      <polygon
         id="polygon482"
         fill="#b88248"
         points="377.68,230.66 406.2,198.97 406.97,198.99 406.92,200.77 377.68,231.82 340.32,198.36 340.27,197.25 341.36,197.28 " />
      <path
         id="path530"
         fill="#d29957"
         d="m 342.87,229.53 a 51.5,51.5 0 0 0 -12,8.95 l 0.44,-18.18 41.7,1.34 0.07,4.17 c -8.81,-2.99 -19.68,-1.97 -30.21,3.72 z" />
      <polygon
         id="polygon600"
         fill="#bf724d"
         points="361.85,245.37 361.67,212.84 343.19,214.63 343.82,245.04 " />
      <polygon
         id="polygon630"
         fill="#b88248"
         points="375.73,276.28 403.64,245.27 404.4,245.29 404.35,247.03 375.73,277.42 339.17,244.67 339.12,243.58 340.19,243.61 " />
    </g>
    <g
       id="g2346">
      <g
         id="g2350">
        <path
           id="path448"
           fill="#e1ab63"
           d="m 267.24,221 c 0,0 0,-58.34 0.24,-59.37 0.24,-1.03 19.68,-7.43 20.29,-7.17 0.61,0.26 1,65.7 1,65.7 z" />
      </g>
      <rect
         id="rect88"
         fill="#e0e0e0"
         height="21.74"
         width="10.31"
         y="142.08"
         x="450.84" />
      <rect
         id="rect106"
         fill="#fafafa"
         height="21.74"
         width="10.31"
         y="98.269997"
         x="389.39001" />
      <path
         id="path108"
         fill="#e0e0e0"
         d="m 426.26,128.55 c 0,0.23 -13.64,0.41 -30.46,0.41 -16.82,0 -30.46,-0.18 -30.46,-0.41 0,-0.23 13.64,-0.42 30.46,-0.42 16.82,0 30.46,0.19 30.46,0.42 z" />
      <rect
         id="rect110"
         fill="#fafafa"
         height="21.74"
         width="10.31"
         y="142.10001"
         x="389.39001" />
      <polygon
         id="polygon432"
         fill="#eebe7a"
         points="329.44,133.69 329.32,128.31 336.43,127.3 336.31,132.55 " />
      <polygon
         id="polygon434"
         fill="#eebe7a"
         points="328.08,140.26 328,136.58 332.85,135.89 332.77,139.48 " />
      <polygon
         id="polygon500"
         fill="#eebe7a"
         points="328.6,121.45 328.48,116.07 335.59,115.06 335.46,120.31 " />
      <polygon
         id="polygon502"
         fill="#eebe7a"
         points="327.24,128.02 327.15,124.34 332.01,123.65 331.93,127.24 " />
      <polygon
         id="polygon506"
         fill="#cf9652"
         points="361.26,150.43 344.02,155.95 347.29,100.03 357.24,101.47 " />
      <path
         id="path508"
         fill="#e1ab63"
         d="m 275.3,175.08 c 0,0 0,-72.17 0.31,-73.44 0.31,-1.27 24.33,-9.2 25.09,-8.87 0.76,0.33 1.21,81.28 1.21,81.28 z" />
      <path
         id="path510"
         fill="#c58f50"
         d="m 355.12,172 c 0,0 0,-72.17 -0.65,-73.4 -0.65,-1.23 -52.56,-6.38 -54.19,-6 -1.63,0.38 -2.61,81.42 -2.61,81.42 z" />
      <polygon
         id="polygon512"
         fill="#bf724d"
         points="371.58,147.52 394.38,147.94 394.15,106.81 370.79,109.07 " />
      <path
         id="path514"
         fill="#eebe7a"
         d="m 406.73,107.67 9.14,0.62 c 0,7.18 -0.35,30.8 -0.47,39.37 l -12.61,0.16 z" />
      <polygon
         id="polygon554"
         fill="#e1ab63"
         points="331.87,109 330.92,100.59 342.06,100.13 342.1,109.59 " />
      <polygon
         id="polygon556"
         fill="#e1ab63"
         points="322.04,110.47 321.46,105.33 328.27,105.05 328.3,110.83 " />
      <path
         id="path560"
         fill="#e1ab63"
         d="m 405.62,118.93 1.11,-11.26 9.14,0.62 c 0,1.23 0,3 0,5 -3.29,0.27 -6.87,2.26 -10.25,5.64 z" />
      <polygon
         id="polygon564"
         fill="#f2bc86"
         points="416.49,115.29 395.89,117.27 395.73,83.8 413.33,84.4 " />
      <polygon
         id="polygon566"
         fill="#e0ad77"
         points="357.04,115.26 397.72,117.27 395.89,83.8 358.37,84 " />
      <polygon
         id="polygon568"
         fill="#f3c68e"
         points="437.5,196.7 359.21,195.76 356.5,113.06 437.9,111.99 " />
      <polygon
         id="polygon570"
         fill="#ffdba7"
         points="435.78,196.7 474.36,194.29 472.51,113.06 437.9,111.99 " />
      <polygon
         id="polygon590"
         fill="#fdc493"
         points="372.36,86.2 372.49,94.09 360.2,93.42 360.47,85.8 " />
      <polygon
         id="polygon680"
         fill="#f2bc86"
         points="412.89,151.39 392.74,153.33 392.57,120.57 409.8,121.16 " />
      <polygon
         id="polygon682"
         fill="#e0ad77"
         points="354.71,151.37 394.52,153.33 392.74,120.57 356.01,120.77 " />
      <polygon
         id="polygon710"
         fill="#fdc493"
         points="369.7,122.93 369.83,130.64 357.81,129.99 358.07,122.53 " />
      <polygon
         id="polygon516"
         fill="#eebe7a"
         points="327.87,220.93 371.93,220 366.14,145.67 323.78,153.69 " />
    </g>
    <g
       class="1"
       id="g2162">
      <path
         id="path344"
         fill="#fafafa"
         d="m 326.71,191.05 c 0,0.14 -13.51,3 -30.22,6.36 -16.71,3.36 -30.3,6 -30.33,5.86 -0.03,-0.14 13.5,-3 30.22,-6.37 16.72,-3.37 30.3,-5.99 30.33,-5.85 z" />
      <polygon
         id="polygon372"
         fill="#cf9652"
         points="323.63,217.8 326.27,172.59 334.31,173.75 337.56,213.33 " />
      <path
         id="path380"
         fill="#e1ab63"
         d="m 268.08,233.26 c 0,0 0,-58.34 0.24,-59.37 0.24,-1.03 19.68,-7.43 20.29,-7.17 0.61,0.26 1,65.7 1,65.7 z" />
      <path
         id="path382"
         fill="#c58f50"
         d="m 332.6,230.76 c 0,0 0,-58.34 -0.53,-59.33 -0.53,-0.99 -42.49,-5.16 -43.81,-4.82 -1.32,0.34 -2.11,65.81 -2.11,65.81 z" />
      <polygon
         id="polygon392"
         fill="#eebe7a"
         points="346.19,269.57 341.51,209.49 307.26,215.97 310.57,270.32 " />
      <polygon
         id="polygon394"
         fill="#e1ab63"
         points="326.46,267.95 327.45,253.24 334.28,252.25 337.35,266.83 " />
      <polygon
         id="polygon396"
         fill="#e1ab63"
         points="312.51,257.85 313.55,228.7 320.75,229.36 323.99,259.84 " />
      <polygon
         id="polygon402"
         fill="#e1ab63"
         points="282.46,269.79 283.51,226.94 317.22,228.02 317.95,270.32 " />
      <path
         id="path404"
         fill="#d29957"
         d="m 316.24,251.37 a 51,51 0 0 0 -5.46,-23.55 l 6.44,0.2 0.73,42.3 -5.06,-0.08 a 53,53 0 0 0 3.35,-18.87 z" />
      <path
         id="path406"
         fill="#d29957"
         d="m 292.82,234.4 a 42,42 0 0 0 -9.67,7.23 l 0.36,-14.69 33.71,1.06 0.06,3.37 c -7.15,-2.37 -15.95,-1.58 -24.46,3.03 z" />
      <polygon
         id="polygon408"
         fill="#eebe7a"
         points="265.04,269.79 265.31,229.76 283.51,226.94 284.01,270.32 " />
      <polygon
         id="polygon410"
         fill="#c58f50"
         points="302.12,270.09 302.91,251.54 331.98,252.08 331.29,270.32 " />
      <polygon
         id="polygon412"
         fill="#a87440"
         points="302.35,264.73 315.46,264.83 315.95,251.78 331.98,252.08 331.29,270.32 302.12,270.09 " />
      <polygon
         id="polygon416"
         fill="#fbd7ab"
         points="330.62,216.09 339.23,214.85 339.33,222.08 331.41,222.45 " />
      <polygon
         id="polygon418"
         fill="#fbca8c"
         points="285.41,243.14 293.08,243.58 292.53,249.73 285.64,250.04 " />
      <polygon
         id="polygon424"
         fill="#fbca8c"
         points="285.15,237.07 290.32,237.37 289.95,241.52 285.3,241.73 " />
      <polygon
         id="polygon426"
         fill="#e1ab63"
         points="313.03,173.04 322.04,172.67 322.07,180.32 313.8,179.84 " />
      <polygon
         id="polygon428"
         fill="#e1ab63"
         points="305.39,176.87 310.9,176.65 310.92,181.32 305.86,181.03 " />
      <polygon
         id="polygon430"
         fill="#e1ab63"
         points="309.98,253.47 315.31,253.43 314.99,257.85 310.13,257.42 " />
      <polygon
         id="polygon460"
         fill="#eebe7a"
         points="345.35,257.33 340.67,197.25 306.43,203.73 309.73,258.08 " />
      <polygon
         id="polygon462"
         fill="#e1ab63"
         points="325.62,255.71 326.61,241 333.44,240 336.51,254.59 " />
      <polygon
         id="polygon464"
         fill="#e1ab63"
         points="311.67,245.62 312.71,216.46 319.91,217.12 323.15,247.6 " />
      <polygon
         id="polygon470"
         fill="#e1ab63"
         points="281.62,257.55 282.67,214.7 316.38,215.78 317.11,258.08 " />
      <path
         id="path472"
         fill="#d29957"
         d="m 315.4,239.13 a 51,51 0 0 0 -5.46,-23.55 l 6.44,0.2 0.73,42.3 -5.06,-0.08 a 53,53 0 0 0 3.35,-18.87 z" />
      <path
         id="path474"
         fill="#d29957"
         d="m 292,222.16 a 42.26,42.26 0 0 0 -9.67,7.23 l 0.36,-14.69 33.71,1.08 0.06,3.37 c -7.17,-2.41 -15.97,-1.6 -24.46,3.01 z" />
      <polygon
         id="polygon476"
         fill="#eebe7a"
         points="264.2,257.55 264.46,217.53 282.67,214.7 283.17,258.08 " />
      <polygon
         id="polygon478"
         fill="#c58f50"
         points="301.28,257.85 302.07,239.3 331.14,239.84 330.45,258.08 " />
      <polygon
         id="polygon480"
         fill="#a87440"
         points="301.51,252.49 314.62,252.6 315.11,239.54 331.14,239.84 330.45,258.08 301.28,257.85 " />
      <polygon
         id="polygon484"
         fill="#fbd7ab"
         points="329.78,203.85 338.39,202.61 338.49,209.84 330.57,210.21 " />
      <polygon
         id="polygon486"
         fill="#fbca8c"
         points="284.57,230.9 292.24,231.34 291.69,237.49 284.8,237.8 " />
      <polygon
         id="polygon492"
         fill="#fbca8c"
         points="284.31,224.84 289.48,225.13 289.11,229.28 284.46,229.49 " />
      <polygon
         id="polygon498"
         fill="#e1ab63"
         points="309.14,241.22 314.47,241.19 314.14,245.61 309.29,245.18 " />
      <polygon
         id="polygon520"
         fill="#e1ab63"
         points="330.27,205.51 331.56,169.44 340.47,170.26 344.47,207.96 " />
      <polygon
         id="polygon526"
         fill="#e1ab63"
         points="293.1,220.26 294.4,167.26 336.09,168.6 337,220.93 " />
      <path
         id="path528"
         fill="#d29957"
         d="m 334.88,197.49 a 63,63 0 0 0 -6.75,-29.14 l 8,0.25 0.91,52.33 -6.26,-0.1 a 65.7,65.7 0 0 0 4.1,-23.34 z" />
      <polygon
         id="polygon532"
         fill="#eebe7a"
         points="271.55,220.26 271.88,170.76 294.4,167.26 295.01,220.93 " />
      <polygon
         id="polygon534"
         fill="#c58f50"
         points="317.42,220.64 318.39,197.69 354.36,198.36 353.5,220.93 " />
      <polygon
         id="polygon536"
         fill="#a87440"
         points="317.7,214.01 333.92,214.14 334.53,197.99 354.36,198.36 353.5,220.93 317.42,220.64 " />
      <polygon
         id="polygon542"
         fill="#fbca8c"
         points="296.75,187.3 306.23,187.84 305.55,195.45 297.03,195.84 " />
      <polygon
         id="polygon552"
         fill="#fbca8c"
         points="296.42,179.8 302.82,180.17 302.36,185.3 296.61,185.56 " />
      <polygon
         id="polygon558"
         fill="#e1ab63"
         points="327.14,200.07 333.73,200.03 333.33,205.5 327.32,204.97 " />
      <polygon
         id="polygon594"
         fill="#cf9652"
         points="322.01,251.71 324.59,207.47 332.47,208.61 335.65,247.34 " />
      <polygon
         id="polygon608"
         fill="#eebe7a"
         points="344.09,302.38 339.51,243.58 306,249.93 309.23,303.12 " />
      <polygon
         id="polygon610"
         fill="#e1ab63"
         points="324.79,300.8 325.75,286.4 332.44,285.43 335.44,299.7 " />
      <polygon
         id="polygon612"
         fill="#e1ab63"
         points="311.13,290.92 312.15,262.39 319.2,263.03 322.37,292.86 " />
      <polygon
         id="polygon614"
         fill="#c68a4a"
         points="341.64,302.38 339.12,243.58 404.4,245.29 402.85,303.12 " />
      <path
         id="path620"
         fill="#d29957"
         d="m 314.78,284.57 a 49.85,49.85 0 0 0 -5.34,-23.05 l 6.3,0.2 0.72,41.4 -5,-0.08 a 52,52 0 0 0 3.32,-18.47 z" />
      <path
         id="path622"
         fill="#d29957"
         d="m 291.86,268 a 41,41 0 0 0 -9.46,7 l 0.35,-14.38 33,1.06 0.06,3.3 c -7.01,-2.33 -15.62,-1.53 -23.95,3.02 z" />
      <polygon
         id="polygon624"
         fill="#eebe7a"
         points="264.68,302.59 264.93,263.43 282.75,260.66 283.24,303.12 " />
      <polygon
         id="polygon626"
         fill="#c58f50"
         points="300.96,302.89 301.74,284.74 330.19,285.26 329.51,303.12 " />
      <polygon
         id="polygon628"
         fill="#a87440"
         points="301.19,297.65 314.02,297.75 314.5,284.97 330.19,285.26 329.51,303.12 300.96,302.89 " />
      <polygon
         id="polygon632"
         fill="#fbd7ab"
         points="328.85,250.05 337.28,248.83 337.38,255.9 329.63,256.27 " />
      <path
         id="path642"
         fill="#e1ab63"
         d="m 267.64,266.84 c 0,0 0,-57.09 0.24,-58.1 0.24,-1.01 19.26,-7.27 19.86,-7 0.6,0.27 0.95,64.31 0.95,64.31 z" />
      <g
         id="ttt2">
        <polygon
           points="290.97,223.93 260.35,223.36 261.26,178.28 290.34,179.42 "
           fill="#e1ab63"
           id="polygon544" />
        <polygon
           points="261.68,223.93 234.5,223.36 234.87,181.25 260.98,178.28 "
           fill="#eebe7a"
           id="polygon546" />
        <polygon
           points="237.12,217.14 236.84,208.6 246.33,209.15 245.65,216.75 "
           fill="#fbd7ab"
           id="polygon548" />
        <polygon
           points="248.29,216.54 248.12,211.25 253.99,211.59 253.57,216.3 "
           fill="#fbd7ab"
           id="polygon550" />
        <polygon
           points="316.46,303.12 281.72,302.59 282.75,260.66 315.74,261.72 "
           fill="#e1ab63"
           id="polygon618" />
        <polygon
           points="284.83,283.27 284.61,276.51 292.11,276.94 291.58,282.96 "
           fill="#fbca8c"
           id="polygon634" />
        <g
           transform="translate(-0.06,-0.23)"
           id="aa">
          <polygon
             id="polygon378"
             fill="#eebe7a"
             points="257.07,270.32 235.09,269.87 235.4,235.82 256.5,233.42 " />
          <g
             id="test">
            <polygon
               points="280.23,234.34 280.74,270.32 255.99,269.87 256.72,233.42 "
               fill="#e1ab63"
               id="polygon376" />
            <polygon
               points="244.11,264.52 237.21,264.83 236.99,257.93 244.65,258.37 "
               fill="#fbd7ab"
               id="polygon420" />
            <polygon
               points="250.51,264.15 246.24,264.35 246.1,260.08 250.85,260.35 "
               fill="#fbd7ab"
               id="polygon422" />
            <polygon
               points="279.39,222.1 279.9,258.08 255.15,257.63 255.88,221.18 "
               fill="#e1ab63"
               id="polygon444" />
            <polygon
               transform="translate(0.23)"
               points="256.23,258.08 234.25,257.63 234.56,223.59 255.65,221.18 "
               fill="#eebe7a"
               id="polygon446" />
            <polygon
               points="243.26,252.28 236.37,252.6 236.15,245.69 243.81,246.13 "
               fill="#fbd7ab"
               id="polygon488" />
            <polygon
               points="249.67,251.92 245.4,252.11 245.26,247.84 250,248.11 "
               fill="#fbd7ab"
               id="polygon490" />
            <polygon
               points="280.04,303.12 255.81,302.67 256.53,267 279.54,267.91 "
               fill="#e1ab63"
               id="polygon596"
               transform="translate(-0.79,0.51)" />
            <polygon
               transform="translate(-0.57,0.51)"
               points="235.36,302.67 235.66,269.36 256.31,267 256.87,303.12 "
               fill="#eebe7a"
               id="polygon598" />
            <polygon
               points="237.44,297.75 237.22,290.99 244.72,291.42 244.19,297.44 "
               fill="#fbd7ab"
               id="polygon636"
               transform="translate(-0.79,0.51)" />
            <polygon
               points="246.27,297.27 246.14,293.09 250.78,293.36 250.45,297.08 "
               fill="#fbd7ab"
               id="polygon638"
               transform="translate(-0.79,0.51)" />
          </g>
        </g>
        <polygon
           points="284.5,275.14 284.35,270.58 289.41,270.87 289.05,274.93 "
           fill="#fbca8c"
           id="polygon640" />
        <path
           d="m 330.79,264.4 c 0,0 0,-57.09 -0.52,-58.07 -0.52,-0.98 -41.58,-5 -42.87,-4.72 -1.29,0.28 -2.06,64.39 -2.06,64.39 z"
           fill="#c58f50"
           id="path644" />
      </g>
      <polygon
         id="polygon646"
         fill="#e1ab63"
         points="311.64,207.91 320.45,207.55 320.49,215.03 312.39,214.57 " />
      <polygon
         id="polygon648"
         fill="#e1ab63"
         points="304.16,211.66 309.55,211.44 309.57,216.01 304.62,215.73 " />
      <polygon
         id="polygon658"
         fill="#e1ab63"
         points="308.65,286.62 313.87,286.58 313.55,290.92 308.8,290.49 " />
      <polygon
         id="polygon660"
         fill="#e1ab63"
         points="340.22,265.05 336.21,160.87 313.36,162.41 310,263.75 " />
      <polygon
         id="polygon662"
         fill="#cf9652"
         points="335.83,265.78 335.83,160.87 384.64,165.01 380.96,265.78 " />
      <polygon
         id="polygon664"
         fill="#eebe7a"
         points="327.58,164.13 334.54,163.14 334.42,168.29 327.7,169.4 " />
      <polygon
         id="polygon666"
         fill="#eebe7a"
         points="326.28,172.23 331.04,171.56 330.96,175.07 326.37,175.83 " />
    </g>
    <g
       id="g2311">
      <polygon
         id="polygon572"
         fill="#f3c68e"
         points="470.08,224.74 467.37,142.03 548.76,140.96 548.37,225.67 " />
      <polygon
         id="polygon574"
         fill="#ffdba7"
         points="585.23,223.27 583.38,142.03 548.76,140.96 546.65,225.67 " />
      <g
         id="g1548">
        <path
           d="m 527.08,154.22 c 0,0 0,-51.19 0.22,-52.09 0.22,-0.9 17.26,-6.52 17.8,-6.29 0.54,0.23 0.86,57.65 0.86,57.65 z"
           fill="#e1ab63"
           id="path650" />
        <path
           d="m 583.7,152 c 0,0 0,-51.19 -0.46,-52.06 -0.46,-0.87 -37.24,-4.49 -38.44,-4.2 -1.2,0.29 -1.8,57.75 -1.8,57.75 z"
           fill="#c58f50"
           id="path652" />
        <polygon
           points="574.43,101.06 574.46,107.77 567.2,107.35 566.53,101.39 "
           fill="#e1ab63"
           id="polygon654" />
        <polygon
           points="564.66,104.55 564.67,108.65 560.24,108.39 559.83,104.75 "
           fill="#e1ab63"
           id="polygon656" />
      </g>
      <polygon
         id="polygon668"
         fill="#e1ab63"
         points="496.59,222.11 493.07,130.54 472.99,131.9 470.04,220.96 " />
      <polygon
         id="polygon670"
         fill="#cf9652"
         points="492.73,222.75 492.73,130.54 535.63,134.19 532.4,222.75 " />
      <polygon
         id="polygon672"
         fill="#eebe7a"
         points="485.48,133.42 491.6,132.55 491.49,137.06 485.59,138.05 " />
      <polygon
         id="polygon674"
         fill="#eebe7a"
         points="484.35,140.53 488.52,139.94 488.45,143.03 484.42,143.7 " />
    </g>
    <g
       id="g2298">
      <path
         d="m 367.92,161.25 c 0.09,0 0,9.18 0,9.18 h -4.47 v -9.18 z"
         fill="#f5f5f5"
         id="path276" />
      <rect
         id="rect92"
         fill="#e0e0e0"
         height="21.74"
         width="10.31"
         y="186.56"
         x="450.84" />
      <path
         id="path94"
         fill="#e0e0e0"
         d="m 487.7,216.83 c 0,0.23 -13.63,0.42 -30.45,0.42 -16.82,0 -30.46,-0.19 -30.46,-0.42 0,-0.23 13.63,-0.41 30.46,-0.41 16.83,0 30.45,0.19 30.45,0.41 z" />
      <rect
         id="rect96"
         fill="#e0e0e0"
         height="21.74"
         width="10.31"
         y="229.75999"
         x="450.84" />
      <path
         id="path98"
         fill="#e0e0e0"
         d="m 487.7,260 c 0,0.23 -13.63,0.41 -30.45,0.41 -16.82,0 -30.46,-0.18 -30.46,-0.41 0,-0.23 13.63,-0.42 30.46,-0.42 16.83,0 30.45,0.23 30.45,0.42 z" />
      <rect
         id="rect100"
         fill="#e0e0e0"
         height="21.74"
         width="10.31"
         y="273.13"
         x="450.84" />
      <path
         id="path112"
         fill="#e0e0e0"
         d="m 426.26,172.38 c 0,0.23 -13.64,0.41 -30.46,0.41 -16.82,0 -30.46,-0.18 -30.46,-0.41 0,-0.23 13.66,-0.38 30.46,-0.38 16.8,0 30.46,0.15 30.46,0.38 z" />
      <rect
         id="rect114"
         fill="#fafafa"
         height="21.74"
         width="10.31"
         y="185.92999"
         x="389.39001" />
      <path
         id="path116"
         fill="#e0e0e0"
         d="m 426.26,216.21 c 0,0.23 -13.64,0.41 -30.46,0.41 -16.82,0 -30.46,-0.18 -30.46,-0.41 0,-0.23 13.64,-0.42 30.46,-0.42 16.82,0 30.46,0.21 30.46,0.42 z" />
      <rect
         id="rect118"
         fill="#fafafa"
         height="21.74"
         width="10.31"
         y="229.75999"
         x="389.39001" />
      <path
         id="path120"
         fill="#e0e0e0"
         d="m 426.26,260 c 0,0.23 -13.64,0.41 -30.46,0.41 -16.82,0 -30.46,-0.18 -30.46,-0.41 0,-0.23 13.64,-0.42 30.46,-0.42 16.82,0 30.46,0.23 30.46,0.42 z" />
      <rect
         id="rect122"
         fill="#fafafa"
         height="21.74"
         width="10.31"
         y="273.59"
         x="389.39001" />
      <rect
         id="rect138"
         fill="#fafafa"
         height="11.88"
         width="5.6300001"
         y="222.08"
         x="476.73999" />
      <path
         id="path140"
         fill="#e0e0e0"
         d="m 496.88,238.63 c 0,0.12 -7.45,0.22 -16.63,0.22 -9.18,0 -16.65,-0.1 -16.65,-0.22 0,-0.12 7.45,-0.23 16.65,-0.23 9.2,0 16.63,0.1 16.63,0.23 z" />
      <rect
         id="rect142"
         fill="#e0e0e0"
         height="11.88"
         width="5.6300001"
         y="222.08"
         x="510.31" />
      <path
         id="path144"
         fill="#e0e0e0"
         d="m 530.45,238.63 c 0,0.12 -7.45,0.22 -16.64,0.22 -9.19,0 -16.64,-0.1 -16.64,-0.22 0,-0.12 7.45,-0.23 16.64,-0.23 9.19,0 16.64,0.1 16.64,0.23 z" />
      <rect
         id="rect146"
         fill="#e0e0e0"
         height="11.88"
         width="5.6300001"
         y="245.67"
         x="510.31" />
      <path
         id="path148"
         fill="#e0e0e0"
         d="m 530.45,262.21 c 0,0.13 -7.45,0.23 -16.64,0.23 -9.19,0 -16.64,-0.1 -16.64,-0.23 0,-0.13 7.45,-0.22 16.64,-0.22 9.19,0 16.64,0.1 16.64,0.22 z" />
      <rect
         id="rect150"
         fill="#e0e0e0"
         height="11.88"
         width="5.6300001"
         y="269.97"
         x="510.31" />
      <path
         id="path152"
         fill="#e0e0e0"
         d="m 530.45,286.51 c 0,0.13 -7.45,0.23 -16.64,0.23 -9.19,0 -16.64,-0.1 -16.64,-0.23 0,-0.13 7.45,-0.23 16.64,-0.23 9.19,0 16.64,0.1 16.64,0.23 z" />
      <rect
         id="rect168"
         fill="#fafafa"
         height="11.88"
         width="5.6300001"
         y="246.03"
         x="476.73999" />
      <path
         id="path170"
         fill="#e0e0e0"
         d="m 496.88,262.57 c 0,0.13 -7.45,0.23 -16.63,0.23 -9.18,0 -16.65,-0.1 -16.65,-0.23 0,-0.13 7.45,-0.22 16.65,-0.22 9.2,0 16.63,0.1 16.63,0.22 z" />
      <rect
         id="rect172"
         fill="#fafafa"
         height="11.88"
         width="5.6300001"
         y="269.98001"
         x="476.73999" />
      <path
         id="path174"
         fill="#e0e0e0"
         d="m 496.88,286.52 c 0,0.12 -7.45,0.22 -16.63,0.22 -9.18,0 -16.65,-0.1 -16.65,-0.22 0,-0.12 7.45,-0.23 16.65,-0.23 9.2,0 16.63,0.1 16.63,0.23 z" />
      <polygon
         id="polygon342"
         fill="#fafafa"
         points="445.72,254.93 389.07,275.02 448.05,261.2 " />
      <polygon
         id="polygon386"
         fill="#a25635"
         points="364,178.07 391.19,179.9 390.26,210.98 363.74,211.32 " />
      <path
         id="path388"
         fill="#8f462b"
         d="m 383.76,183.31 c -10.8,0 -19.57,12.51 -19.69,28 h -0.33 l 0.26,-33.25 27.18,1.83 -0.16,5.4 a 14.54,14.54 0 0 0 -7.26,-1.98 z" />
      <path
         id="path390"
         fill="#eebe7a"
         d="m 374.32,178.77 7.39,0.49 c 0,5.81 -0.28,24.91 -0.38,31.84 l -10.19,0.12 z" />
      <path
         id="path400"
         fill="#d29957"
         d="m 350.82,209.74 57,1.49 -1,38.28 c -8.25,-36.51 -56,-39.77 -56,-39.77 z" />
      <path
         id="path436"
         fill="#e1ab63"
         d="m 373.42,187.87 0.9,-9.1 7.39,0.49 c 0,1 0,2.4 0,4.06 -2.66,0.21 -5.53,1.82 -8.29,4.55 z" />
      <polygon
         id="polygon454"
         fill="#a25635"
         points="363.16,165.83 390.34,167.66 389.42,198.74 362.9,199.08 " />
      <path
         id="path456"
         fill="#8f462b"
         d="m 382.92,171.07 c -10.81,0 -19.58,12.51 -19.69,28 h -0.33 l 0.26,-33.25 27.18,1.83 -0.16,5.4 a 14.54,14.54 0 0 0 -7.26,-1.98 z" />
      <path
         id="path458"
         fill="#eebe7a"
         d="m 373.47,166.53 7.39,0.5 c 0,5.8 -0.27,24.9 -0.37,31.83 L 370.3,199 Z" />
      <path
         id="path468"
         fill="#d29957"
         d="m 350,197.5 57,1.5 -1,38.28 C 397.73,200.74 350,197.5 350,197.5 Z" />
      <path
         id="path504"
         fill="#e1ab63"
         d="m 372.58,175.63 0.89,-9.1 7.39,0.5 c 0,1 0,2.39 0,4.05 -2.65,0.21 -5.52,1.82 -8.28,4.55 z" />
      <polygon
         id="polygon576"
         fill="#eebf85"
         points="514.4,270.32 422.44,270.32 423.63,191.36 511.63,194.56 " />
      <polygon
         id="polygon578"
         fill="#d49e67"
         points="352.01,270.32 425.21,270.32 424.26,191.36 354.22,194.56 " />
      <polygon
         id="polygon580"
         fill="#fce8cf"
         points="440.27,178.53 453.63,179.27 452.89,188.28 439.38,187.35 " />
      <polygon
         id="polygon582"
         fill="#fce8cf"
         points="440.74,170.65 446.22,171.05 445.92,175.86 440.37,175.36 " />
      <path
         id="path584"
         fill="#e4825f"
         d="m 507.91,205.65 c 0,-3.58 -2.34,-6.48 -5.15,-6.48 -2.81,0 -5.05,2.9 -5,6.48 0.05,3.58 2.35,6.48 5.15,6.48 2.8,0 5.09,-2.9 5,-6.48 z m -5,5 c -2.18,0 -4,-2.25 -4,-5 0,-2.75 1.71,-5 3.89,-5 2.18,0 4,2.25 4,5 0,2.75 -1.73,5.03 -3.91,5.03 z" />
      <path
         id="path586"
         fill="#e4825f"
         d="m 505.68,205.65 c 0,-2 -1.32,-3.62 -2.89,-3.62 -1.57,0 -2.82,1.62 -2.8,3.62 0.02,2 1.31,3.63 2.88,3.63 1.57,0 2.83,-1.63 2.81,-3.63 z" />
      <polygon
         id="polygon592"
         fill="#fce8cf"
         points="508.15,254.48 491.01,252.82 491.01,265.35 508.15,264.57 " />
      <polygon
         id="polygon602"
         fill="#a25635"
         points="361.52,212.84 388.13,214.63 387.22,245.04 361.27,245.37 " />
      <path
         id="path604"
         fill="#8f462b"
         d="m 380.86,218 c -10.57,0 -19.16,12.25 -19.27,27.41 h -0.32 l 0.26,-32.53 26.6,1.79 -0.16,5.28 A 14.31,14.31 0 0 0 380.86,218 Z" />
      <path
         id="path606"
         fill="#eebe7a"
         d="m 371.62,213.52 7.23,0.48 c 0,5.68 -0.27,24.38 -0.37,31.15 l -10,0.13 z" />
      <path
         id="path616"
         fill="#d29957"
         d="m 348.62,243.83 55.78,1.46 -1,37.46 C 395.36,247 348.62,243.83 348.62,243.83 Z" />
      <path
         id="path676"
         fill="#e1ab63"
         d="m 370.74,222.43 0.88,-8.91 7.23,0.48 c 0,1 0,2.35 0,4 -2.6,0.18 -5.41,1.75 -8.11,4.43 z" />
      <path
         id="path678"
         fill="#e5b27e"
         d="m 476.71,201.12 c -1.17,-0.19 -15.33,-0.19 -15.33,-0.19 l 0.59,29.22 h 25.21 c 0,0 -9.31,-28.83 -10.47,-29.03 z" />
      <polygon
         id="polygon684"
         fill="#eebf85"
         points="508.71,303.12 418.71,303.12 419.88,225.84 506,228.97 " />
      <polygon
         id="polygon686"
         fill="#d49e67"
         points="349.79,303.12 421.43,303.12 420.5,225.84 351.95,228.97 " />
      <polygon
         id="dd"
         fill="#f3c68e"
         points="354.19,149.21 433.84,148.16 433.45,231.07 356.84,230.15 "
         inkscape:label="" />
      <polygon
         id="polygon690"
         fill="#ffdba7"
         points="467.72,149.21 433.84,148.16 431.77,231.07 469.53,228.71 " />
      <polygon
         id="polygon692"
         fill="#fce8cf"
         points="436.17,213.28 449.24,214.01 448.52,222.83 435.29,221.91 " />
      <polygon
         id="polygon694"
         fill="#fce8cf"
         points="436.62,205.57 441.99,205.96 441.69,210.67 436.26,210.18 " />
      <polygon
         id="polygon696"
         fill="#f3c68e"
         points="550.58,304.8 473.97,303.89 471.32,222.95 550.97,221.9 "
         transform="translate(-0.1176534,-0.94111943)" />
      <polygon
         id="polygon698"
         fill="#ffdba7"
         points="586.66,302.45 584.85,222.95 550.97,221.9 548.9,304.8 "
         transform="translate(-0.3035811,-1.0971476)" />
      <polygon
         id="polygon700"
         fill="#fce8cf"
         points="553.3,287.02 566.37,287.74 565.65,296.56 552.42,295.65 " />
      <polygon
         id="polygon702"
         fill="#fce8cf"
         points="553.75,279.31 559.12,279.7 558.82,284.4 553.39,283.92 " />
      <path
         id="path704"
         fill="#e4825f"
         d="m 502.37,239.83 c 0,-3.51 -2.3,-6.35 -5.05,-6.35 -2.75,0 -4.94,2.84 -4.9,6.35 0.04,3.51 2.3,6.34 5,6.34 2.7,0 4.98,-2.84 4.95,-6.34 z m -4.92,4.92 c -2.14,0 -3.89,-2.2 -3.92,-4.92 -0.03,-2.72 1.68,-4.93 3.81,-4.93 2.13,0 3.88,2.21 3.91,4.93 0.03,2.72 -1.67,4.92 -3.8,4.92 z" />
      <path
         id="path706"
         fill="#e4825f"
         d="m 500.17,239.83 c 0,-2 -1.28,-3.55 -2.82,-3.55 -1.54,0 -2.76,1.59 -2.74,3.55 0.02,1.96 1.29,3.54 2.82,3.54 1.53,0 2.77,-1.58 2.74,-3.54 z" />
      <polygon
         id="polygon712"
         fill="#fce8cf"
         points="502.59,287.61 485.82,285.99 485.82,298.25 502.59,297.49 " />
    </g>
  </g>
</svg>
